<mxfile host="app.diagrams.net" modified="2023-05-09T20:03:48.115Z" agent="Mozilla/5.0 (Macintosh; Intel Mac OS X 10_15_7) AppleWebKit/605.1.15 (KHTML, like Gecko) Version/16.3 Safari/605.1.15" etag="xJJevSotUdvlICnHGwFH" version="21.2.9" type="device">
  <diagram name="Page-1" id="-sZ-xGBPO6Y-2KFO73AD">
    <mxGraphModel dx="4685" dy="2718" grid="1" gridSize="10" guides="1" tooltips="1" connect="1" arrows="1" fold="1" page="1" pageScale="1" pageWidth="850" pageHeight="1100" math="0" shadow="0">
      <root>
        <mxCell id="0" />
        <mxCell id="1" parent="0" />
        <mxCell id="T_0jKyK-xo-bBpQAJnL_-1" value="Соревнование" style="rounded=0;whiteSpace=wrap;html=1;fillColor=#cce5ff;strokeColor=#36393d;fontStyle=0" parent="1" vertex="1">
          <mxGeometry x="40" y="40" width="90" height="50" as="geometry" />
        </mxCell>
        <mxCell id="T_0jKyK-xo-bBpQAJnL_-2" value="Название" style="ellipse;whiteSpace=wrap;html=1;fillColor=#cce5ff;strokeColor=#36393d;fontStyle=0" parent="1" vertex="1">
          <mxGeometry x="-130" y="-60" width="70" height="40" as="geometry" />
        </mxCell>
        <mxCell id="T_0jKyK-xo-bBpQAJnL_-4" value="Вид" style="ellipse;whiteSpace=wrap;html=1;fillColor=#cce5ff;strokeColor=#36393d;fontStyle=0" parent="1" vertex="1">
          <mxGeometry x="10" y="-100" width="70" height="40" as="geometry" />
        </mxCell>
        <mxCell id="T_0jKyK-xo-bBpQAJnL_-5" value="Категория" style="ellipse;whiteSpace=wrap;html=1;fillColor=#cce5ff;strokeColor=#36393d;fontStyle=0" parent="1" vertex="1">
          <mxGeometry x="170" y="-100" width="70" height="40" as="geometry" />
        </mxCell>
        <mxCell id="T_0jKyK-xo-bBpQAJnL_-6" value="Место проведения" style="ellipse;whiteSpace=wrap;html=1;fillColor=#cce5ff;strokeColor=#36393d;fontStyle=0" parent="1" vertex="1">
          <mxGeometry x="-145" y="35" width="100" height="60" as="geometry" />
        </mxCell>
        <mxCell id="T_0jKyK-xo-bBpQAJnL_-7" value="Дата" style="ellipse;whiteSpace=wrap;html=1;fillColor=#cce5ff;strokeColor=#36393d;fontStyle=0" parent="1" vertex="1">
          <mxGeometry x="225" y="-60" width="76.25" height="40" as="geometry" />
        </mxCell>
        <mxCell id="T_0jKyK-xo-bBpQAJnL_-11" value="Проведение соревнований" style="rhombus;whiteSpace=wrap;html=1;fillColor=#e1d5e7;strokeColor=#9673a6;fontStyle=0" parent="1" vertex="1">
          <mxGeometry x="312.5" y="280" width="110" height="65" as="geometry" />
        </mxCell>
        <mxCell id="T_0jKyK-xo-bBpQAJnL_-37" value="Тренер" style="rounded=0;whiteSpace=wrap;html=1;fillColor=#ffe6cc;strokeColor=#d79b00;fontStyle=0" parent="1" vertex="1">
          <mxGeometry x="465" y="697.44" width="110" height="55" as="geometry" />
        </mxCell>
        <mxCell id="T_0jKyK-xo-bBpQAJnL_-38" value="&lt;span&gt;ФИО тренера&lt;/span&gt;" style="ellipse;whiteSpace=wrap;html=1;fillColor=#ffe6cc;strokeColor=#d79b00;fontStyle=0" parent="1" vertex="1">
          <mxGeometry x="710" y="650" width="90" height="50" as="geometry" />
        </mxCell>
        <mxCell id="T_0jKyK-xo-bBpQAJnL_-39" value="Номер тел." style="ellipse;whiteSpace=wrap;html=1;fillColor=#ffe6cc;strokeColor=#d79b00;fontStyle=0" parent="1" vertex="1">
          <mxGeometry x="500" y="535" width="90" height="50" as="geometry" />
        </mxCell>
        <mxCell id="T_0jKyK-xo-bBpQAJnL_-40" value="&lt;u&gt;№ паспорта тренера&lt;/u&gt;" style="ellipse;whiteSpace=wrap;html=1;fillColor=#ffe6cc;strokeColor=#d79b00;fontStyle=0" parent="1" vertex="1">
          <mxGeometry x="610" y="535" width="90" height="50" as="geometry" />
        </mxCell>
        <mxCell id="T_0jKyK-xo-bBpQAJnL_-43" value="Оклад" style="ellipse;whiteSpace=wrap;html=1;fillColor=#ffe6cc;strokeColor=#d79b00;fontStyle=0" parent="1" vertex="1">
          <mxGeometry x="710" y="585" width="90" height="50" as="geometry" />
        </mxCell>
        <mxCell id="T_0jKyK-xo-bBpQAJnL_-45" value="Спортсмен" style="whiteSpace=wrap;html=1;fillColor=#fff2cc;strokeColor=#d6b656;fontStyle=0" parent="1" vertex="1">
          <mxGeometry x="-360" y="700" width="120" height="60" as="geometry" />
        </mxCell>
        <mxCell id="T_0jKyK-xo-bBpQAJnL_-49" value="&lt;u&gt;Код спортсмена&lt;/u&gt;" style="ellipse;whiteSpace=wrap;html=1;fillColor=#fff2cc;strokeColor=#d6b656;fontStyle=0" parent="1" vertex="1">
          <mxGeometry x="-435" y="490" width="90" height="50" as="geometry" />
        </mxCell>
        <mxCell id="T_0jKyK-xo-bBpQAJnL_-50" value="Дата рождения" style="ellipse;whiteSpace=wrap;html=1;fillColor=#fff2cc;strokeColor=#d6b656;fontStyle=0" parent="1" vertex="1">
          <mxGeometry x="-525" y="560" width="90" height="50" as="geometry" />
        </mxCell>
        <mxCell id="T_0jKyK-xo-bBpQAJnL_-54" value="Квалификация" style="shape=trapezoid;perimeter=trapezoidPerimeter;whiteSpace=wrap;html=1;fixedSize=1;fillColor=#e3c800;fontColor=#000000;strokeColor=#B09500;fontStyle=0" parent="1" vertex="1">
          <mxGeometry x="-353.75" y="1170" width="105" height="40" as="geometry" />
        </mxCell>
        <mxCell id="T_0jKyK-xo-bBpQAJnL_-55" value="Травма" style="shape=trapezoid;perimeter=trapezoidPerimeter;whiteSpace=wrap;html=1;fixedSize=1;fillColor=#fa6800;fontColor=#000000;strokeColor=#C73500;fontStyle=0" parent="1" vertex="1">
          <mxGeometry x="-761.25" y="740" width="110" height="40" as="geometry" />
        </mxCell>
        <mxCell id="T_0jKyK-xo-bBpQAJnL_-57" value="&lt;u&gt;Код травмы&lt;/u&gt;" style="ellipse;whiteSpace=wrap;html=1;fillColor=#fa6800;fontColor=#000000;strokeColor=#C73500;fontStyle=0" parent="1" vertex="1">
          <mxGeometry x="-800" y="622.44" width="80" height="50" as="geometry" />
        </mxCell>
        <mxCell id="T_0jKyK-xo-bBpQAJnL_-58" value="Код вида травмы" style="ellipse;whiteSpace=wrap;html=1;fillColor=#fa6800;fontColor=#000000;strokeColor=#C73500;fontStyle=0" parent="1" vertex="1">
          <mxGeometry x="-860" y="687.44" width="80" height="50" as="geometry" />
        </mxCell>
        <mxCell id="T_0jKyK-xo-bBpQAJnL_-59" value="Дата получения" style="ellipse;whiteSpace=wrap;html=1;fillColor=#fa6800;fontColor=#000000;strokeColor=#C73500;fontStyle=0" parent="1" vertex="1">
          <mxGeometry x="-630" y="800" width="80" height="50" as="geometry" />
        </mxCell>
        <mxCell id="T_0jKyK-xo-bBpQAJnL_-60" value="&lt;span&gt;Код спортсмена&lt;/span&gt;" style="ellipse;whiteSpace=wrap;html=1;fillColor=#fa6800;fontColor=#000000;strokeColor=#C73500;fontStyle=0" parent="1" vertex="1">
          <mxGeometry x="-695" y="622.44" width="80" height="50" as="geometry" />
        </mxCell>
        <mxCell id="T_0jKyK-xo-bBpQAJnL_-61" value="Дата окончания лечения" style="ellipse;whiteSpace=wrap;html=1;fillColor=#fa6800;fontColor=#000000;strokeColor=#C73500;fontStyle=0" parent="1" vertex="1">
          <mxGeometry x="-746.25" y="800" width="80" height="50" as="geometry" />
        </mxCell>
        <mxCell id="T_0jKyK-xo-bBpQAJnL_-62" value="&lt;span style=&quot;border-color: var(--border-color); caret-color: rgb(255, 255, 255);&quot;&gt;Код вида спорта&lt;/span&gt;" style="ellipse;whiteSpace=wrap;html=1;fillColor=#e3c800;fontColor=#000000;strokeColor=#B09500;fontStyle=0" parent="1" vertex="1">
          <mxGeometry x="-481.25" y="1080" width="87.5" height="50" as="geometry" />
        </mxCell>
        <mxCell id="T_0jKyK-xo-bBpQAJnL_-64" value="Разряд" style="ellipse;whiteSpace=wrap;html=1;fillColor=#e3c800;fontColor=#000000;strokeColor=#B09500;fontStyle=0" parent="1" vertex="1">
          <mxGeometry x="-481.25" y="1150" width="87.5" height="50" as="geometry" />
        </mxCell>
        <mxCell id="T_0jKyK-xo-bBpQAJnL_-67" value="&lt;u&gt;Код квалфикации&lt;/u&gt;" style="ellipse;whiteSpace=wrap;html=1;fillColor=#e3c800;fontColor=#000000;strokeColor=#B09500;fontStyle=0" parent="1" vertex="1">
          <mxGeometry x="-217.5" y="1080" width="87.5" height="50" as="geometry" />
        </mxCell>
        <mxCell id="T_0jKyK-xo-bBpQAJnL_-75" value="&lt;span&gt;&lt;u&gt;Дата&lt;/u&gt;&lt;/span&gt;" style="ellipse;whiteSpace=wrap;html=1;fillColor=#d5e8d4;strokeColor=#82b366;fontStyle=0" parent="1" vertex="1">
          <mxGeometry x="200" y="900" width="80" height="50" as="geometry" />
        </mxCell>
        <mxCell id="T_0jKyK-xo-bBpQAJnL_-76" value="&lt;span&gt;№ паспорта тренера&lt;/span&gt;" style="ellipse;whiteSpace=wrap;html=1;fillColor=#d5e8d4;strokeColor=#82b366;fontStyle=0" parent="1" vertex="1">
          <mxGeometry x="-61.56" y="900" width="80" height="50" as="geometry" />
        </mxCell>
        <mxCell id="T_0jKyK-xo-bBpQAJnL_-78" value="&lt;span&gt;Код спортсмена&lt;/span&gt;" style="ellipse;whiteSpace=wrap;html=1;fillColor=#d5e8d4;strokeColor=#82b366;fontStyle=0" parent="1" vertex="1">
          <mxGeometry x="120" y="990" width="80" height="50" as="geometry" />
        </mxCell>
        <mxCell id="T_0jKyK-xo-bBpQAJnL_-89" value="&lt;span style=&quot;border-color: var(--border-color);&quot;&gt;&lt;u&gt;№ паспорта тренера&lt;/u&gt;&lt;/span&gt;" style="ellipse;whiteSpace=wrap;html=1;fillColor=#ffcccc;strokeColor=#36393d;fontStyle=0" parent="1" vertex="1">
          <mxGeometry x="-420" y="360" width="80" height="50" as="geometry" />
        </mxCell>
        <mxCell id="T_0jKyK-xo-bBpQAJnL_-98" value="&lt;span style=&quot;border-color: var(--border-color);&quot;&gt;&lt;span&gt;№ паспорта тренера&lt;/span&gt;&lt;/span&gt;" style="ellipse;whiteSpace=wrap;html=1;fillColor=#ffff88;strokeColor=#36393d;fontStyle=0" parent="1" vertex="1">
          <mxGeometry x="740" y="915" width="100" height="60" as="geometry" />
        </mxCell>
        <mxCell id="T_0jKyK-xo-bBpQAJnL_-104" value="&lt;span style=&quot;border-color: var(--border-color);&quot;&gt;&lt;span&gt;Код спортсмена&lt;/span&gt;&lt;/span&gt;" style="ellipse;whiteSpace=wrap;html=1;fillColor=#eeeeee;strokeColor=#36393d;fontStyle=0" parent="1" vertex="1">
          <mxGeometry x="-790" y="1060" width="100" height="60" as="geometry" />
        </mxCell>
        <mxCell id="QASz2EzwDTXJJAMBeDHt-2" value="&lt;u&gt;Код соревнований&lt;/u&gt;" style="ellipse;whiteSpace=wrap;html=1;align=center;fontStyle=0;fillColor=#dae8fc;strokeColor=#6c8ebf;" parent="1" vertex="1">
          <mxGeometry x="213.13" y="35" width="100" height="60" as="geometry" />
        </mxCell>
        <mxCell id="QASz2EzwDTXJJAMBeDHt-5" value="&lt;u&gt;Код спортсмена&lt;/u&gt;" style="ellipse;whiteSpace=wrap;html=1;align=center;fontStyle=0;fillColor=#f8cecc;strokeColor=#b85450;" parent="1" vertex="1">
          <mxGeometry x="-75" y="287.5" width="85" height="50" as="geometry" />
        </mxCell>
        <mxCell id="QASz2EzwDTXJJAMBeDHt-8" value="&lt;span&gt;Кода вида спорта&lt;/span&gt;" style="ellipse;whiteSpace=wrap;html=1;fillColor=#fff2cc;strokeColor=#d6b656;fontStyle=0" parent="1" vertex="1">
          <mxGeometry x="-571.25" y="620" width="90" height="50" as="geometry" />
        </mxCell>
        <mxCell id="GG7052n2TjOn2dOCgbdk-4" value="" style="endArrow=none;html=1;rounded=0;entryX=1;entryY=0.5;entryDx=0;entryDy=0;exitX=0;exitY=0.25;exitDx=0;exitDy=0;fontStyle=0" parent="1" source="T_0jKyK-xo-bBpQAJnL_-1" target="T_0jKyK-xo-bBpQAJnL_-2" edge="1">
          <mxGeometry width="50" height="50" relative="1" as="geometry">
            <mxPoint x="-20" y="55" as="sourcePoint" />
            <mxPoint x="30" y="5" as="targetPoint" />
          </mxGeometry>
        </mxCell>
        <mxCell id="GG7052n2TjOn2dOCgbdk-5" value="" style="endArrow=none;html=1;rounded=0;entryX=0.5;entryY=1;entryDx=0;entryDy=0;exitX=0.25;exitY=0;exitDx=0;exitDy=0;fontStyle=0" parent="1" source="T_0jKyK-xo-bBpQAJnL_-1" target="T_0jKyK-xo-bBpQAJnL_-4" edge="1">
          <mxGeometry width="50" height="50" relative="1" as="geometry">
            <mxPoint x="-220" y="205" as="sourcePoint" />
            <mxPoint x="-170" y="155" as="targetPoint" />
          </mxGeometry>
        </mxCell>
        <mxCell id="GG7052n2TjOn2dOCgbdk-6" value="" style="endArrow=none;html=1;rounded=0;entryX=0.5;entryY=1;entryDx=0;entryDy=0;exitX=1;exitY=0;exitDx=0;exitDy=0;fontStyle=0" parent="1" source="T_0jKyK-xo-bBpQAJnL_-1" target="T_0jKyK-xo-bBpQAJnL_-5" edge="1">
          <mxGeometry width="50" height="50" relative="1" as="geometry">
            <mxPoint x="129" y="36" as="sourcePoint" />
            <mxPoint x="-160" y="165" as="targetPoint" />
          </mxGeometry>
        </mxCell>
        <mxCell id="GG7052n2TjOn2dOCgbdk-7" value="" style="endArrow=none;html=1;rounded=0;entryX=1;entryY=0.5;entryDx=0;entryDy=0;exitX=0;exitY=0.5;exitDx=0;exitDy=0;fontStyle=0" parent="1" source="T_0jKyK-xo-bBpQAJnL_-1" target="T_0jKyK-xo-bBpQAJnL_-6" edge="1">
          <mxGeometry width="50" height="50" relative="1" as="geometry">
            <mxPoint x="-200" y="225" as="sourcePoint" />
            <mxPoint x="-39.999999999999545" y="145" as="targetPoint" />
          </mxGeometry>
        </mxCell>
        <mxCell id="GG7052n2TjOn2dOCgbdk-8" value="" style="endArrow=none;html=1;rounded=0;exitX=1;exitY=0.25;exitDx=0;exitDy=0;entryX=0;entryY=0.5;entryDx=0;entryDy=0;fontStyle=0" parent="1" source="T_0jKyK-xo-bBpQAJnL_-1" target="T_0jKyK-xo-bBpQAJnL_-7" edge="1">
          <mxGeometry width="50" height="50" relative="1" as="geometry">
            <mxPoint x="-190" y="235" as="sourcePoint" />
            <mxPoint x="235" y="-30" as="targetPoint" />
          </mxGeometry>
        </mxCell>
        <mxCell id="GG7052n2TjOn2dOCgbdk-9" value="" style="endArrow=none;html=1;rounded=0;entryX=0;entryY=0.5;entryDx=0;entryDy=0;exitX=1;exitY=0.5;exitDx=0;exitDy=0;fontStyle=0" parent="1" source="T_0jKyK-xo-bBpQAJnL_-1" target="QASz2EzwDTXJJAMBeDHt-2" edge="1">
          <mxGeometry width="50" height="50" relative="1" as="geometry">
            <mxPoint x="-180" y="245" as="sourcePoint" />
            <mxPoint x="-130" y="195" as="targetPoint" />
          </mxGeometry>
        </mxCell>
        <mxCell id="GG7052n2TjOn2dOCgbdk-18" value="" style="endArrow=none;html=1;rounded=0;exitX=0.5;exitY=0;exitDx=0;exitDy=0;entryX=0;entryY=1;entryDx=0;entryDy=0;fontStyle=0" parent="1" source="T_0jKyK-xo-bBpQAJnL_-104" target="H0BXeEcezO7H1MNJMZM7-56" edge="1">
          <mxGeometry width="50" height="50" relative="1" as="geometry">
            <mxPoint x="-720" y="1075" as="sourcePoint" />
            <mxPoint x="-655" y="1044.9999999999995" as="targetPoint" />
          </mxGeometry>
        </mxCell>
        <mxCell id="GG7052n2TjOn2dOCgbdk-22" value="" style="endArrow=none;html=1;rounded=0;exitX=1;exitY=0.5;exitDx=0;exitDy=0;entryX=0;entryY=0.5;entryDx=0;entryDy=0;fontStyle=0" parent="1" source="T_0jKyK-xo-bBpQAJnL_-98" target="H0BXeEcezO7H1MNJMZM7-47" edge="1">
          <mxGeometry width="50" height="50" relative="1" as="geometry">
            <mxPoint x="1326.25" y="765" as="sourcePoint" />
            <mxPoint x="896.25" y="965" as="targetPoint" />
          </mxGeometry>
        </mxCell>
        <mxCell id="GG7052n2TjOn2dOCgbdk-27" value="" style="endArrow=none;html=1;rounded=0;exitX=0;exitY=0.5;exitDx=0;exitDy=0;entryX=1;entryY=0.5;entryDx=0;entryDy=0;fontStyle=0" parent="1" source="T_0jKyK-xo-bBpQAJnL_-75" target="H0BXeEcezO7H1MNJMZM7-87" edge="1">
          <mxGeometry width="50" height="50" relative="1" as="geometry">
            <mxPoint x="13.439999999999998" y="970" as="sourcePoint" />
            <mxPoint x="144.47999999999996" y="951.02" as="targetPoint" />
          </mxGeometry>
        </mxCell>
        <mxCell id="GG7052n2TjOn2dOCgbdk-30" value="" style="endArrow=none;html=1;rounded=0;exitX=0.5;exitY=1;exitDx=0;exitDy=0;entryX=0.5;entryY=0;entryDx=0;entryDy=0;fontStyle=0" parent="1" source="H0BXeEcezO7H1MNJMZM7-87" target="T_0jKyK-xo-bBpQAJnL_-78" edge="1">
          <mxGeometry width="50" height="50" relative="1" as="geometry">
            <mxPoint x="133.44" y="890" as="sourcePoint" />
            <mxPoint x="108" y="1010" as="targetPoint" />
          </mxGeometry>
        </mxCell>
        <mxCell id="GG7052n2TjOn2dOCgbdk-31" value="" style="endArrow=none;html=1;rounded=0;exitX=1;exitY=0.5;exitDx=0;exitDy=0;entryX=0;entryY=0.5;entryDx=0;entryDy=0;fontStyle=0" parent="1" source="T_0jKyK-xo-bBpQAJnL_-76" target="H0BXeEcezO7H1MNJMZM7-87" edge="1">
          <mxGeometry width="50" height="50" relative="1" as="geometry">
            <mxPoint x="53.44" y="1010" as="sourcePoint" />
            <mxPoint x="78.44" y="890" as="targetPoint" />
          </mxGeometry>
        </mxCell>
        <mxCell id="GG7052n2TjOn2dOCgbdk-39" value="" style="endArrow=none;html=1;rounded=0;entryX=1;entryY=0.5;entryDx=0;entryDy=0;exitX=0.106;exitY=0.61;exitDx=0;exitDy=0;exitPerimeter=0;fontStyle=0" parent="1" source="H0BXeEcezO7H1MNJMZM7-2" target="T_0jKyK-xo-bBpQAJnL_-89" edge="1">
          <mxGeometry width="50" height="50" relative="1" as="geometry">
            <mxPoint x="-245" y="340" as="sourcePoint" />
            <mxPoint x="-110" y="420" as="targetPoint" />
          </mxGeometry>
        </mxCell>
        <mxCell id="GG7052n2TjOn2dOCgbdk-41" value="" style="endArrow=none;html=1;rounded=0;entryX=0;entryY=0.5;entryDx=0;entryDy=0;exitX=1;exitY=0.5;exitDx=0;exitDy=0;fontStyle=0" parent="1" source="H0BXeEcezO7H1MNJMZM7-2" target="QASz2EzwDTXJJAMBeDHt-5" edge="1">
          <mxGeometry width="50" height="50" relative="1" as="geometry">
            <mxPoint x="-135" y="340" as="sourcePoint" />
            <mxPoint x="-110" y="420" as="targetPoint" />
          </mxGeometry>
        </mxCell>
        <mxCell id="GG7052n2TjOn2dOCgbdk-55" value="" style="endArrow=none;html=1;rounded=0;entryX=0;entryY=0.5;entryDx=0;entryDy=0;exitX=1;exitY=1;exitDx=0;exitDy=0;fontStyle=0" parent="1" source="T_0jKyK-xo-bBpQAJnL_-50" target="T_0jKyK-xo-bBpQAJnL_-45" edge="1">
          <mxGeometry width="50" height="50" relative="1" as="geometry">
            <mxPoint x="-355" y="830" as="sourcePoint" />
            <mxPoint x="-305" y="780" as="targetPoint" />
          </mxGeometry>
        </mxCell>
        <mxCell id="GG7052n2TjOn2dOCgbdk-56" value="" style="endArrow=none;html=1;rounded=0;entryX=0;entryY=0.75;entryDx=0;entryDy=0;exitX=1;exitY=0.5;exitDx=0;exitDy=0;fontStyle=0" parent="1" source="QASz2EzwDTXJJAMBeDHt-8" target="T_0jKyK-xo-bBpQAJnL_-45" edge="1">
          <mxGeometry width="50" height="50" relative="1" as="geometry">
            <mxPoint x="-355" y="830" as="sourcePoint" />
            <mxPoint x="-305" y="780" as="targetPoint" />
          </mxGeometry>
        </mxCell>
        <mxCell id="GG7052n2TjOn2dOCgbdk-59" value="" style="endArrow=none;html=1;rounded=0;exitX=0.5;exitY=1;exitDx=0;exitDy=0;entryX=0;entryY=0;entryDx=0;entryDy=0;fontStyle=0" parent="1" source="T_0jKyK-xo-bBpQAJnL_-49" target="T_0jKyK-xo-bBpQAJnL_-45" edge="1">
          <mxGeometry width="50" height="50" relative="1" as="geometry">
            <mxPoint x="-355" y="830" as="sourcePoint" />
            <mxPoint x="-305" y="780" as="targetPoint" />
          </mxGeometry>
        </mxCell>
        <mxCell id="GG7052n2TjOn2dOCgbdk-63" value="" style="endArrow=none;html=1;rounded=0;entryX=1;entryY=0.25;entryDx=0;entryDy=0;exitX=0;exitY=1;exitDx=0;exitDy=0;fontStyle=0" parent="1" source="T_0jKyK-xo-bBpQAJnL_-43" target="T_0jKyK-xo-bBpQAJnL_-37" edge="1">
          <mxGeometry width="50" height="50" relative="1" as="geometry">
            <mxPoint x="410" y="792.44" as="sourcePoint" />
            <mxPoint x="460" y="742.44" as="targetPoint" />
          </mxGeometry>
        </mxCell>
        <mxCell id="GG7052n2TjOn2dOCgbdk-66" value="" style="endArrow=none;html=1;rounded=0;entryX=1;entryY=0.5;entryDx=0;entryDy=0;exitX=0;exitY=0.5;exitDx=0;exitDy=0;fontStyle=0" parent="1" source="T_0jKyK-xo-bBpQAJnL_-38" target="T_0jKyK-xo-bBpQAJnL_-37" edge="1">
          <mxGeometry width="50" height="50" relative="1" as="geometry">
            <mxPoint x="410" y="792.44" as="sourcePoint" />
            <mxPoint x="460" y="742.44" as="targetPoint" />
          </mxGeometry>
        </mxCell>
        <mxCell id="GG7052n2TjOn2dOCgbdk-67" value="" style="endArrow=none;html=1;rounded=0;entryX=1;entryY=0;entryDx=0;entryDy=0;exitX=0.5;exitY=1;exitDx=0;exitDy=0;fontStyle=0" parent="1" source="T_0jKyK-xo-bBpQAJnL_-40" target="T_0jKyK-xo-bBpQAJnL_-37" edge="1">
          <mxGeometry width="50" height="50" relative="1" as="geometry">
            <mxPoint x="410" y="792.44" as="sourcePoint" />
            <mxPoint x="460" y="742.44" as="targetPoint" />
          </mxGeometry>
        </mxCell>
        <mxCell id="GG7052n2TjOn2dOCgbdk-68" value="" style="endArrow=none;html=1;rounded=0;entryX=0.5;entryY=1;entryDx=0;entryDy=0;fontStyle=0" parent="1" target="T_0jKyK-xo-bBpQAJnL_-39" edge="1">
          <mxGeometry width="50" height="50" relative="1" as="geometry">
            <mxPoint x="548" y="697" as="sourcePoint" />
            <mxPoint x="460" y="742.44" as="targetPoint" />
          </mxGeometry>
        </mxCell>
        <mxCell id="GG7052n2TjOn2dOCgbdk-69" value="" style="endArrow=none;html=1;rounded=0;entryX=0;entryY=1;entryDx=0;entryDy=0;exitX=0.826;exitY=-0.025;exitDx=0;exitDy=0;exitPerimeter=0;fontStyle=0" parent="1" source="T_0jKyK-xo-bBpQAJnL_-54" target="T_0jKyK-xo-bBpQAJnL_-67" edge="1">
          <mxGeometry width="50" height="50" relative="1" as="geometry">
            <mxPoint x="-263.75" y="1200" as="sourcePoint" />
            <mxPoint x="-256.24999999999955" y="1125" as="targetPoint" />
          </mxGeometry>
        </mxCell>
        <mxCell id="GG7052n2TjOn2dOCgbdk-72" value="" style="endArrow=none;html=1;rounded=0;entryX=1;entryY=0.5;entryDx=0;entryDy=0;exitX=0;exitY=0.5;exitDx=0;exitDy=0;fontStyle=0" parent="1" source="T_0jKyK-xo-bBpQAJnL_-54" target="T_0jKyK-xo-bBpQAJnL_-64" edge="1">
          <mxGeometry width="50" height="50" relative="1" as="geometry">
            <mxPoint x="-263.75" y="1200" as="sourcePoint" />
            <mxPoint x="-443.75" y="1210" as="targetPoint" />
          </mxGeometry>
        </mxCell>
        <mxCell id="GG7052n2TjOn2dOCgbdk-74" value="" style="endArrow=none;html=1;rounded=0;entryX=1;entryY=0.5;entryDx=0;entryDy=0;exitX=0.188;exitY=-0.025;exitDx=0;exitDy=0;exitPerimeter=0;fontStyle=0" parent="1" source="T_0jKyK-xo-bBpQAJnL_-54" target="T_0jKyK-xo-bBpQAJnL_-62" edge="1">
          <mxGeometry width="50" height="50" relative="1" as="geometry">
            <mxPoint x="-263.75" y="1200" as="sourcePoint" />
            <mxPoint x="-213.75" y="1150" as="targetPoint" />
          </mxGeometry>
        </mxCell>
        <mxCell id="GG7052n2TjOn2dOCgbdk-75" value="" style="endArrow=none;html=1;rounded=0;entryX=0;entryY=0;entryDx=0;entryDy=0;exitX=1;exitY=1;exitDx=0;exitDy=0;fontStyle=0" parent="1" source="T_0jKyK-xo-bBpQAJnL_-55" target="T_0jKyK-xo-bBpQAJnL_-59" edge="1">
          <mxGeometry width="50" height="50" relative="1" as="geometry">
            <mxPoint x="-646.25" y="775" as="sourcePoint" />
            <mxPoint x="-611.25" y="835" as="targetPoint" />
          </mxGeometry>
        </mxCell>
        <mxCell id="GG7052n2TjOn2dOCgbdk-76" value="" style="endArrow=none;html=1;rounded=0;entryX=0.5;entryY=1;entryDx=0;entryDy=0;exitX=0.5;exitY=0;exitDx=0;exitDy=0;fontStyle=0" parent="1" source="T_0jKyK-xo-bBpQAJnL_-61" target="T_0jKyK-xo-bBpQAJnL_-55" edge="1">
          <mxGeometry width="50" height="50" relative="1" as="geometry">
            <mxPoint x="-646.25" y="775" as="sourcePoint" />
            <mxPoint x="-596.25" y="725" as="targetPoint" />
          </mxGeometry>
        </mxCell>
        <mxCell id="GG7052n2TjOn2dOCgbdk-77" value="" style="endArrow=none;html=1;rounded=0;entryX=0.5;entryY=1;entryDx=0;entryDy=0;exitX=0.813;exitY=0.002;exitDx=0;exitDy=0;exitPerimeter=0;fontStyle=0" parent="1" source="T_0jKyK-xo-bBpQAJnL_-55" target="T_0jKyK-xo-bBpQAJnL_-60" edge="1">
          <mxGeometry width="50" height="50" relative="1" as="geometry">
            <mxPoint x="-646.25" y="775" as="sourcePoint" />
            <mxPoint x="-596.25" y="725" as="targetPoint" />
          </mxGeometry>
        </mxCell>
        <mxCell id="GG7052n2TjOn2dOCgbdk-78" value="" style="endArrow=none;html=1;rounded=0;entryX=0.5;entryY=1;entryDx=0;entryDy=0;exitX=0.184;exitY=0.04;exitDx=0;exitDy=0;exitPerimeter=0;fontStyle=0" parent="1" source="T_0jKyK-xo-bBpQAJnL_-55" target="T_0jKyK-xo-bBpQAJnL_-57" edge="1">
          <mxGeometry width="50" height="50" relative="1" as="geometry">
            <mxPoint x="-646.25" y="775" as="sourcePoint" />
            <mxPoint x="-596.25" y="725" as="targetPoint" />
          </mxGeometry>
        </mxCell>
        <mxCell id="GG7052n2TjOn2dOCgbdk-79" value="" style="endArrow=none;html=1;rounded=0;entryX=0;entryY=0.5;entryDx=0;entryDy=0;exitX=1;exitY=0.5;exitDx=0;exitDy=0;fontStyle=0" parent="1" source="T_0jKyK-xo-bBpQAJnL_-58" target="T_0jKyK-xo-bBpQAJnL_-55" edge="1">
          <mxGeometry width="50" height="50" relative="1" as="geometry">
            <mxPoint x="-646.25" y="775" as="sourcePoint" />
            <mxPoint x="-596.25" y="725" as="targetPoint" />
          </mxGeometry>
        </mxCell>
        <mxCell id="GG7052n2TjOn2dOCgbdk-87" value="" style="endArrow=none;html=1;rounded=0;endFill=0;entryX=0.5;entryY=0;entryDx=0;entryDy=0;exitX=0.5;exitY=1;exitDx=0;exitDy=0;fontStyle=0" parent="1" source="T_0jKyK-xo-bBpQAJnL_-45" target="T_0jKyK-xo-bBpQAJnL_-54" edge="1">
          <mxGeometry relative="1" as="geometry">
            <mxPoint x="-250" y="875" as="sourcePoint" />
            <mxPoint x="-435" y="505" as="targetPoint" />
          </mxGeometry>
        </mxCell>
        <mxCell id="GG7052n2TjOn2dOCgbdk-88" value="1" style="edgeLabel;resizable=0;html=1;align=left;verticalAlign=bottom;fontStyle=0" parent="GG7052n2TjOn2dOCgbdk-87" connectable="0" vertex="1">
          <mxGeometry x="-1" relative="1" as="geometry">
            <mxPoint x="-30" y="49" as="offset" />
          </mxGeometry>
        </mxCell>
        <mxCell id="GG7052n2TjOn2dOCgbdk-89" value="M" style="edgeLabel;resizable=0;html=1;align=right;verticalAlign=bottom;fontStyle=0" parent="GG7052n2TjOn2dOCgbdk-87" connectable="0" vertex="1">
          <mxGeometry x="1" relative="1" as="geometry">
            <mxPoint x="-9" y="-30" as="offset" />
          </mxGeometry>
        </mxCell>
        <mxCell id="GG7052n2TjOn2dOCgbdk-91" value="" style="endArrow=none;html=1;rounded=0;endFill=0;entryX=1;entryY=0.5;entryDx=0;entryDy=0;exitX=0;exitY=1;exitDx=0;exitDy=0;fontStyle=0" parent="1" source="T_0jKyK-xo-bBpQAJnL_-45" target="T_0jKyK-xo-bBpQAJnL_-55" edge="1">
          <mxGeometry relative="1" as="geometry">
            <mxPoint x="-356" y="960" as="sourcePoint" />
            <mxPoint x="-200" y="1199" as="targetPoint" />
          </mxGeometry>
        </mxCell>
        <mxCell id="GG7052n2TjOn2dOCgbdk-92" value="1" style="edgeLabel;resizable=0;html=1;align=left;verticalAlign=bottom;fontStyle=0" parent="GG7052n2TjOn2dOCgbdk-91" connectable="0" vertex="1">
          <mxGeometry x="-1" relative="1" as="geometry">
            <mxPoint x="-60" as="offset" />
          </mxGeometry>
        </mxCell>
        <mxCell id="GG7052n2TjOn2dOCgbdk-93" value="0" style="edgeLabel;resizable=0;html=1;align=right;verticalAlign=bottom;fontStyle=0" parent="GG7052n2TjOn2dOCgbdk-91" connectable="0" vertex="1">
          <mxGeometry x="1" relative="1" as="geometry">
            <mxPoint x="22" y="-10" as="offset" />
          </mxGeometry>
        </mxCell>
        <mxCell id="h09okIYVJo6ltOKspNvo-6" value="&lt;span&gt;&lt;u&gt;Код соревнований&lt;/u&gt;&lt;/span&gt;" style="ellipse;whiteSpace=wrap;html=1;fillColor=#e1d5e7;strokeColor=#9673a6;fontStyle=0" parent="1" vertex="1">
          <mxGeometry x="500" y="337.5" width="90" height="50" as="geometry" />
        </mxCell>
        <mxCell id="h09okIYVJo6ltOKspNvo-10" value="&lt;span style=&quot;border-color: var(--border-color);&quot;&gt;&lt;u&gt;№ паспорта тренера&lt;/u&gt;&lt;/span&gt;" style="ellipse;whiteSpace=wrap;html=1;fillColor=#d0cee2;strokeColor=#56517e;fontStyle=0" parent="1" vertex="1">
          <mxGeometry x="428.75" y="380" width="80" height="50" as="geometry" />
        </mxCell>
        <mxCell id="h09okIYVJo6ltOKspNvo-16" value="" style="endArrow=none;html=1;rounded=0;entryX=1;entryY=0.5;entryDx=0;entryDy=0;exitX=0;exitY=0.5;exitDx=0;exitDy=0;fontStyle=0" parent="1" source="T_0jKyK-xo-bBpQAJnL_-11" edge="1">
          <mxGeometry width="50" height="50" relative="1" as="geometry">
            <mxPoint x="192.5" y="550" as="sourcePoint" />
            <mxPoint x="250" y="312.5" as="targetPoint" />
          </mxGeometry>
        </mxCell>
        <mxCell id="h09okIYVJo6ltOKspNvo-18" value="" style="endArrow=none;html=1;rounded=0;entryX=0;entryY=0.5;entryDx=0;entryDy=0;exitX=0.924;exitY=0.705;exitDx=0;exitDy=0;exitPerimeter=0;fontStyle=0" parent="1" source="T_0jKyK-xo-bBpQAJnL_-11" target="h09okIYVJo6ltOKspNvo-6" edge="1">
          <mxGeometry width="50" height="50" relative="1" as="geometry">
            <mxPoint x="377.5" y="285" as="sourcePoint" />
            <mxPoint x="397.5" y="160" as="targetPoint" />
          </mxGeometry>
        </mxCell>
        <mxCell id="h09okIYVJo6ltOKspNvo-21" value="" style="endArrow=none;html=1;rounded=0;entryX=1;entryY=1;entryDx=0;entryDy=0;exitX=0;exitY=0.5;exitDx=0;exitDy=0;fontStyle=0" parent="1" source="h09okIYVJo6ltOKspNvo-10" target="T_0jKyK-xo-bBpQAJnL_-11" edge="1">
          <mxGeometry width="50" height="50" relative="1" as="geometry">
            <mxPoint x="407.5" y="315" as="sourcePoint" />
            <mxPoint x="427.5" y="190" as="targetPoint" />
          </mxGeometry>
        </mxCell>
        <mxCell id="H0BXeEcezO7H1MNJMZM7-2" value="Отборочные" style="rhombus;whiteSpace=wrap;html=1;fillColor=#f8cecc;strokeColor=#b85450;fontStyle=0" parent="1" vertex="1">
          <mxGeometry x="-250" y="280" width="120" height="65" as="geometry" />
        </mxCell>
        <mxCell id="H0BXeEcezO7H1MNJMZM7-4" value="" style="endArrow=none;html=1;rounded=0;exitX=0.25;exitY=1;exitDx=0;exitDy=0;entryX=1;entryY=0;entryDx=0;entryDy=0;endFill=0;fontStyle=0" parent="1" source="T_0jKyK-xo-bBpQAJnL_-1" target="H0BXeEcezO7H1MNJMZM7-2" edge="1">
          <mxGeometry relative="1" as="geometry">
            <mxPoint x="-190" y="260" as="sourcePoint" />
            <mxPoint x="-30" y="260" as="targetPoint" />
          </mxGeometry>
        </mxCell>
        <mxCell id="H0BXeEcezO7H1MNJMZM7-6" value="M" style="edgeLabel;resizable=0;html=1;align=left;verticalAlign=bottom;fontStyle=0" parent="H0BXeEcezO7H1MNJMZM7-4" connectable="0" vertex="1">
          <mxGeometry x="-1" relative="1" as="geometry">
            <mxPoint x="-54" y="30" as="offset" />
          </mxGeometry>
        </mxCell>
        <mxCell id="H0BXeEcezO7H1MNJMZM7-8" value="" style="endArrow=none;html=1;rounded=0;exitX=0.75;exitY=1;exitDx=0;exitDy=0;entryX=0;entryY=0;entryDx=0;entryDy=0;endFill=0;fontStyle=0" parent="1" source="T_0jKyK-xo-bBpQAJnL_-1" target="T_0jKyK-xo-bBpQAJnL_-11" edge="1">
          <mxGeometry relative="1" as="geometry">
            <mxPoint x="-190" y="260" as="sourcePoint" />
            <mxPoint x="-30" y="260" as="targetPoint" />
          </mxGeometry>
        </mxCell>
        <mxCell id="H0BXeEcezO7H1MNJMZM7-10" value="M" style="edgeLabel;resizable=0;html=1;align=left;verticalAlign=bottom;fontStyle=0" parent="H0BXeEcezO7H1MNJMZM7-8" connectable="0" vertex="1">
          <mxGeometry x="-1" relative="1" as="geometry">
            <mxPoint x="43" y="30" as="offset" />
          </mxGeometry>
        </mxCell>
        <mxCell id="H0BXeEcezO7H1MNJMZM7-12" value="" style="endArrow=none;html=1;rounded=0;exitX=0.5;exitY=1;exitDx=0;exitDy=0;entryX=0.5;entryY=0;entryDx=0;entryDy=0;endFill=0;fontStyle=0" parent="1" source="H0BXeEcezO7H1MNJMZM7-2" target="T_0jKyK-xo-bBpQAJnL_-45" edge="1">
          <mxGeometry relative="1" as="geometry">
            <mxPoint x="-50" y="720" as="sourcePoint" />
            <mxPoint x="110" y="720" as="targetPoint" />
          </mxGeometry>
        </mxCell>
        <mxCell id="H0BXeEcezO7H1MNJMZM7-15" value="M" style="edgeLabel;resizable=0;html=1;align=right;verticalAlign=bottom;fontStyle=0" parent="H0BXeEcezO7H1MNJMZM7-12" connectable="0" vertex="1">
          <mxGeometry x="1" relative="1" as="geometry">
            <mxPoint y="-12" as="offset" />
          </mxGeometry>
        </mxCell>
        <mxCell id="H0BXeEcezO7H1MNJMZM7-16" value="" style="endArrow=none;html=1;rounded=0;entryX=0.5;entryY=1;entryDx=0;entryDy=0;exitX=0.5;exitY=0;exitDx=0;exitDy=0;endFill=0;fontStyle=0" parent="1" source="T_0jKyK-xo-bBpQAJnL_-37" target="T_0jKyK-xo-bBpQAJnL_-11" edge="1">
          <mxGeometry relative="1" as="geometry">
            <mxPoint x="-50" y="720" as="sourcePoint" />
            <mxPoint x="110" y="720" as="targetPoint" />
          </mxGeometry>
        </mxCell>
        <mxCell id="H0BXeEcezO7H1MNJMZM7-18" value="M" style="edgeLabel;resizable=0;html=1;align=left;verticalAlign=bottom;fontStyle=0" parent="H0BXeEcezO7H1MNJMZM7-16" connectable="0" vertex="1">
          <mxGeometry x="-1" relative="1" as="geometry">
            <mxPoint y="-17" as="offset" />
          </mxGeometry>
        </mxCell>
        <mxCell id="H0BXeEcezO7H1MNJMZM7-20" value="" style="endArrow=none;html=1;rounded=0;entryX=1;entryY=1;entryDx=0;entryDy=0;exitX=0.25;exitY=0;exitDx=0;exitDy=0;endFill=0;fontStyle=0" parent="1" source="T_0jKyK-xo-bBpQAJnL_-37" target="H0BXeEcezO7H1MNJMZM7-2" edge="1">
          <mxGeometry relative="1" as="geometry">
            <mxPoint x="-50" y="720" as="sourcePoint" />
            <mxPoint x="110" y="720" as="targetPoint" />
          </mxGeometry>
        </mxCell>
        <mxCell id="H0BXeEcezO7H1MNJMZM7-22" value="M" style="edgeLabel;resizable=0;html=1;align=left;verticalAlign=bottom;fontStyle=0" parent="H0BXeEcezO7H1MNJMZM7-20" connectable="0" vertex="1">
          <mxGeometry x="-1" relative="1" as="geometry">
            <mxPoint x="-22" y="-12" as="offset" />
          </mxGeometry>
        </mxCell>
        <mxCell id="H0BXeEcezO7H1MNJMZM7-24" value="" style="endArrow=none;html=1;rounded=0;entryX=0;entryY=1;entryDx=0;entryDy=0;exitX=0.75;exitY=0;exitDx=0;exitDy=0;endFill=0;fontStyle=0" parent="1" source="T_0jKyK-xo-bBpQAJnL_-45" target="T_0jKyK-xo-bBpQAJnL_-11" edge="1">
          <mxGeometry relative="1" as="geometry">
            <mxPoint x="-50" y="720" as="sourcePoint" />
            <mxPoint x="110" y="720" as="targetPoint" />
          </mxGeometry>
        </mxCell>
        <mxCell id="H0BXeEcezO7H1MNJMZM7-26" value="M" style="edgeLabel;resizable=0;html=1;align=left;verticalAlign=bottom;fontStyle=0" parent="H0BXeEcezO7H1MNJMZM7-24" connectable="0" vertex="1">
          <mxGeometry x="-1" relative="1" as="geometry">
            <mxPoint y="-13" as="offset" />
          </mxGeometry>
        </mxCell>
        <mxCell id="H0BXeEcezO7H1MNJMZM7-28" value="Статус" style="ellipse;whiteSpace=wrap;html=1;fillColor=#ffcccc;strokeColor=#36393d;fontStyle=0" parent="1" vertex="1">
          <mxGeometry x="-340" y="160" width="80" height="50" as="geometry" />
        </mxCell>
        <mxCell id="H0BXeEcezO7H1MNJMZM7-29" value="" style="endArrow=none;html=1;rounded=0;entryX=1;entryY=1;entryDx=0;entryDy=0;exitX=0;exitY=0;exitDx=0;exitDy=0;fontStyle=0" parent="1" source="H0BXeEcezO7H1MNJMZM7-2" target="H0BXeEcezO7H1MNJMZM7-28" edge="1">
          <mxGeometry width="50" height="50" relative="1" as="geometry">
            <mxPoint x="-190" y="280" as="sourcePoint" />
            <mxPoint y="230" as="targetPoint" />
          </mxGeometry>
        </mxCell>
        <mxCell id="H0BXeEcezO7H1MNJMZM7-30" value="&lt;span&gt;&lt;u&gt;Код соревнований&lt;/u&gt;&lt;/span&gt;" style="ellipse;whiteSpace=wrap;html=1;fillColor=#f8cecc;strokeColor=#b85450;fontStyle=0" parent="1" vertex="1">
          <mxGeometry x="-235" y="160" width="90" height="50" as="geometry" />
        </mxCell>
        <mxCell id="H0BXeEcezO7H1MNJMZM7-31" value="" style="endArrow=none;html=1;rounded=0;entryX=0.5;entryY=1;entryDx=0;entryDy=0;exitX=0.5;exitY=0;exitDx=0;exitDy=0;fontStyle=0" parent="1" source="H0BXeEcezO7H1MNJMZM7-2" target="H0BXeEcezO7H1MNJMZM7-30" edge="1">
          <mxGeometry width="50" height="50" relative="1" as="geometry">
            <mxPoint x="-50" y="280" as="sourcePoint" />
            <mxPoint y="230" as="targetPoint" />
          </mxGeometry>
        </mxCell>
        <mxCell id="H0BXeEcezO7H1MNJMZM7-32" value="&lt;u&gt;Код спортсмена&lt;/u&gt;" style="ellipse;whiteSpace=wrap;html=1;align=center;fontStyle=0;fillColor=#e1d5e7;strokeColor=#9673a6;" parent="1" vertex="1">
          <mxGeometry x="270" y="160" width="87.5" height="50" as="geometry" />
        </mxCell>
        <mxCell id="H0BXeEcezO7H1MNJMZM7-39" value="&lt;span style=&quot;border-color: var(--border-color);&quot;&gt;&lt;u&gt;Код вида спорта&lt;/u&gt;&lt;br&gt;&lt;/span&gt;" style="ellipse;whiteSpace=wrap;html=1;fillColor=#ffcccc;strokeColor=#36393d;fontStyle=0" parent="1" vertex="1">
          <mxGeometry x="-330" y="380" width="80" height="50" as="geometry" />
        </mxCell>
        <mxCell id="H0BXeEcezO7H1MNJMZM7-40" value="" style="endArrow=none;html=1;rounded=0;entryX=1;entryY=0.5;entryDx=0;entryDy=0;exitX=0;exitY=1;exitDx=0;exitDy=0;fontStyle=0" parent="1" source="H0BXeEcezO7H1MNJMZM7-2" target="H0BXeEcezO7H1MNJMZM7-39" edge="1">
          <mxGeometry width="50" height="50" relative="1" as="geometry">
            <mxPoint x="-50" y="270" as="sourcePoint" />
            <mxPoint y="220" as="targetPoint" />
          </mxGeometry>
        </mxCell>
        <mxCell id="H0BXeEcezO7H1MNJMZM7-42" value="&lt;span style=&quot;border-color: var(--border-color);&quot;&gt;&lt;u&gt;Код вида спорта&lt;/u&gt;&lt;/span&gt;" style="ellipse;whiteSpace=wrap;html=1;fillColor=#e1d5e7;strokeColor=#9673a6;fontStyle=0" parent="1" vertex="1">
          <mxGeometry x="483.41" y="237.5" width="90" height="50" as="geometry" />
        </mxCell>
        <mxCell id="H0BXeEcezO7H1MNJMZM7-43" value="" style="endArrow=none;html=1;rounded=0;entryX=0;entryY=1;entryDx=0;entryDy=0;exitX=1;exitY=0;exitDx=0;exitDy=0;fontStyle=0" parent="1" source="T_0jKyK-xo-bBpQAJnL_-11" target="H0BXeEcezO7H1MNJMZM7-42" edge="1">
          <mxGeometry width="50" height="50" relative="1" as="geometry">
            <mxPoint x="-50" y="270" as="sourcePoint" />
            <mxPoint y="220" as="targetPoint" />
          </mxGeometry>
        </mxCell>
        <mxCell id="H0BXeEcezO7H1MNJMZM7-44" value="Виды спорта" style="shape=parallelogram;perimeter=parallelogramPerimeter;whiteSpace=wrap;html=1;fixedSize=1;fillColor=#6d8764;fontColor=#ffffff;strokeColor=#3A5431;fontStyle=0" parent="1" vertex="1">
          <mxGeometry x="-365" y="1390" width="130" height="60" as="geometry" />
        </mxCell>
        <mxCell id="H0BXeEcezO7H1MNJMZM7-47" value="Рейтинг тренера" style="shape=trapezoid;perimeter=trapezoidPerimeter;whiteSpace=wrap;html=1;fixedSize=1;fillColor=#ffff88;strokeColor=#36393d;fontStyle=0" parent="1" vertex="1">
          <mxGeometry x="910" y="924.94" width="90" height="39.97" as="geometry" />
        </mxCell>
        <mxCell id="H0BXeEcezO7H1MNJMZM7-48" value="" style="endArrow=none;html=1;rounded=0;exitX=0.5;exitY=0;exitDx=0;exitDy=0;entryX=1;entryY=1;entryDx=0;entryDy=0;endFill=0;fontStyle=0" parent="1" source="H0BXeEcezO7H1MNJMZM7-47" target="T_0jKyK-xo-bBpQAJnL_-37" edge="1">
          <mxGeometry relative="1" as="geometry">
            <mxPoint x="360" y="1135" as="sourcePoint" />
            <mxPoint x="780" y="985" as="targetPoint" />
          </mxGeometry>
        </mxCell>
        <mxCell id="H0BXeEcezO7H1MNJMZM7-50" value="M" style="edgeLabel;resizable=0;html=1;align=left;verticalAlign=bottom;fontStyle=0" parent="H0BXeEcezO7H1MNJMZM7-48" connectable="0" vertex="1">
          <mxGeometry x="-1" relative="1" as="geometry">
            <mxPoint x="-35" y="-15" as="offset" />
          </mxGeometry>
        </mxCell>
        <mxCell id="H0BXeEcezO7H1MNJMZM7-51" value="1" style="edgeLabel;resizable=0;html=1;align=right;verticalAlign=bottom;fontStyle=0" parent="H0BXeEcezO7H1MNJMZM7-48" connectable="0" vertex="1">
          <mxGeometry x="1" relative="1" as="geometry">
            <mxPoint x="75" y="17" as="offset" />
          </mxGeometry>
        </mxCell>
        <mxCell id="H0BXeEcezO7H1MNJMZM7-52" value="" style="endArrow=none;html=1;rounded=0;entryX=0.25;entryY=1;entryDx=0;entryDy=0;exitX=0.5;exitY=0;exitDx=0;exitDy=0;endFill=0;fontStyle=0" parent="1" source="H0BXeEcezO7H1MNJMZM7-56" target="T_0jKyK-xo-bBpQAJnL_-45" edge="1">
          <mxGeometry relative="1" as="geometry">
            <mxPoint x="-305" y="1100" as="sourcePoint" />
            <mxPoint x="60" y="1300" as="targetPoint" />
          </mxGeometry>
        </mxCell>
        <mxCell id="H0BXeEcezO7H1MNJMZM7-54" value="M" style="edgeLabel;resizable=0;html=1;align=left;verticalAlign=bottom;fontStyle=0" parent="H0BXeEcezO7H1MNJMZM7-52" connectable="0" vertex="1">
          <mxGeometry x="-1" relative="1" as="geometry">
            <mxPoint x="-15" y="-15" as="offset" />
          </mxGeometry>
        </mxCell>
        <mxCell id="H0BXeEcezO7H1MNJMZM7-55" value="1" style="edgeLabel;resizable=0;html=1;align=right;verticalAlign=bottom;fontStyle=0" parent="H0BXeEcezO7H1MNJMZM7-52" connectable="0" vertex="1">
          <mxGeometry x="1" relative="1" as="geometry">
            <mxPoint x="-60" y="60" as="offset" />
          </mxGeometry>
        </mxCell>
        <mxCell id="H0BXeEcezO7H1MNJMZM7-56" value="Рейтинг спортсмена" style="shape=trapezoid;perimeter=trapezoidPerimeter;whiteSpace=wrap;html=1;fixedSize=1;fillColor=#eeeeee;strokeColor=#36393d;fontStyle=0" parent="1" vertex="1">
          <mxGeometry x="-740" y="955" width="140" height="60" as="geometry" />
        </mxCell>
        <mxCell id="H0BXeEcezO7H1MNJMZM7-57" value="&lt;span&gt;&lt;u&gt;Код спортсмена&lt;/u&gt;&lt;/span&gt;" style="ellipse;whiteSpace=wrap;html=1;fillColor=#e3c800;fontColor=#000000;strokeColor=#B09500;fontStyle=0" parent="1" vertex="1">
          <mxGeometry x="-230" y="1210" width="85" height="50" as="geometry" />
        </mxCell>
        <mxCell id="H0BXeEcezO7H1MNJMZM7-58" value="" style="endArrow=none;html=1;rounded=0;entryX=1;entryY=1;entryDx=0;entryDy=0;exitX=0;exitY=0;exitDx=0;exitDy=0;fontStyle=0" parent="1" source="H0BXeEcezO7H1MNJMZM7-57" target="T_0jKyK-xo-bBpQAJnL_-54" edge="1">
          <mxGeometry width="50" height="50" relative="1" as="geometry">
            <mxPoint x="-303.75" y="1245" as="sourcePoint" />
            <mxPoint x="-253.75" y="1195" as="targetPoint" />
          </mxGeometry>
        </mxCell>
        <mxCell id="H0BXeEcezO7H1MNJMZM7-59" value="Вес" style="ellipse;whiteSpace=wrap;html=1;fillColor=#e3c800;fontColor=#000000;strokeColor=#B09500;fontStyle=0" parent="1" vertex="1">
          <mxGeometry x="-217.5" y="1150" width="85" height="50" as="geometry" />
        </mxCell>
        <mxCell id="H0BXeEcezO7H1MNJMZM7-60" value="" style="endArrow=none;html=1;rounded=0;entryX=0;entryY=0.5;entryDx=0;entryDy=0;exitX=1;exitY=0.5;exitDx=0;exitDy=0;fontStyle=0" parent="1" source="T_0jKyK-xo-bBpQAJnL_-54" target="H0BXeEcezO7H1MNJMZM7-59" edge="1">
          <mxGeometry width="50" height="50" relative="1" as="geometry">
            <mxPoint x="-303.75" y="1245" as="sourcePoint" />
            <mxPoint x="-253.75" y="1195" as="targetPoint" />
          </mxGeometry>
        </mxCell>
        <mxCell id="H0BXeEcezO7H1MNJMZM7-62" value="&lt;span&gt;Код названия&lt;/span&gt;" style="ellipse;whiteSpace=wrap;html=1;fillColor=#fa6800;fontColor=#000000;strokeColor=#C73500;fontStyle=0" parent="1" vertex="1">
          <mxGeometry x="-860" y="800" width="80" height="50" as="geometry" />
        </mxCell>
        <mxCell id="H0BXeEcezO7H1MNJMZM7-63" value="" style="endArrow=none;html=1;rounded=0;entryX=0;entryY=1;entryDx=0;entryDy=0;exitX=1;exitY=0;exitDx=0;exitDy=0;fontStyle=0" parent="1" source="H0BXeEcezO7H1MNJMZM7-62" target="T_0jKyK-xo-bBpQAJnL_-55" edge="1">
          <mxGeometry width="50" height="50" relative="1" as="geometry">
            <mxPoint x="-136.25" y="830" as="sourcePoint" />
            <mxPoint x="-86.25" y="780" as="targetPoint" />
          </mxGeometry>
        </mxCell>
        <mxCell id="H0BXeEcezO7H1MNJMZM7-66" value="&lt;u&gt;С&lt;/u&gt;" style="ellipse;whiteSpace=wrap;html=1;fillColor=#ffff88;strokeColor=#36393d;fontStyle=0" parent="1" vertex="1">
          <mxGeometry x="850" y="1005" width="100" height="60" as="geometry" />
        </mxCell>
        <mxCell id="H0BXeEcezO7H1MNJMZM7-67" value="По" style="ellipse;whiteSpace=wrap;html=1;fillColor=#ffff88;strokeColor=#36393d;fontStyle=0" parent="1" vertex="1">
          <mxGeometry x="1070" y="914.9200000000001" width="100" height="60" as="geometry" />
        </mxCell>
        <mxCell id="H0BXeEcezO7H1MNJMZM7-68" value="" style="endArrow=none;html=1;rounded=0;entryX=0;entryY=1;entryDx=0;entryDy=0;exitX=0.5;exitY=0;exitDx=0;exitDy=0;fontStyle=0" parent="1" source="H0BXeEcezO7H1MNJMZM7-66" target="H0BXeEcezO7H1MNJMZM7-47" edge="1">
          <mxGeometry width="50" height="50" relative="1" as="geometry">
            <mxPoint x="526.25" y="1060" as="sourcePoint" />
            <mxPoint x="576.25" y="1010" as="targetPoint" />
          </mxGeometry>
        </mxCell>
        <mxCell id="H0BXeEcezO7H1MNJMZM7-69" value="" style="endArrow=none;html=1;rounded=0;entryX=0;entryY=0.5;entryDx=0;entryDy=0;exitX=1;exitY=0.5;exitDx=0;exitDy=0;fontStyle=0" parent="1" source="H0BXeEcezO7H1MNJMZM7-47" target="H0BXeEcezO7H1MNJMZM7-67" edge="1">
          <mxGeometry width="50" height="50" relative="1" as="geometry">
            <mxPoint x="526.25" y="1060" as="sourcePoint" />
            <mxPoint x="576.25" y="1010" as="targetPoint" />
          </mxGeometry>
        </mxCell>
        <mxCell id="H0BXeEcezO7H1MNJMZM7-70" value="По" style="ellipse;whiteSpace=wrap;html=1;fillColor=#eeeeee;strokeColor=#36393d;fontStyle=0" parent="1" vertex="1">
          <mxGeometry x="-650" y="1060" width="100" height="60" as="geometry" />
        </mxCell>
        <mxCell id="H0BXeEcezO7H1MNJMZM7-71" value="&lt;u&gt;С&lt;/u&gt;" style="ellipse;whiteSpace=wrap;html=1;fillColor=#eeeeee;strokeColor=#36393d;fontStyle=0" parent="1" vertex="1">
          <mxGeometry x="-535" y="955" width="100" height="60" as="geometry" />
        </mxCell>
        <mxCell id="H0BXeEcezO7H1MNJMZM7-72" value="" style="endArrow=none;html=1;rounded=0;entryX=0;entryY=0.5;entryDx=0;entryDy=0;exitX=1;exitY=0.5;exitDx=0;exitDy=0;fontStyle=0" parent="1" source="H0BXeEcezO7H1MNJMZM7-56" target="H0BXeEcezO7H1MNJMZM7-71" edge="1">
          <mxGeometry width="50" height="50" relative="1" as="geometry">
            <mxPoint x="-390" y="905" as="sourcePoint" />
            <mxPoint x="-555" y="985" as="targetPoint" />
          </mxGeometry>
        </mxCell>
        <mxCell id="H0BXeEcezO7H1MNJMZM7-73" value="" style="endArrow=none;html=1;rounded=0;entryX=0.5;entryY=0;entryDx=0;entryDy=0;exitX=1;exitY=1;exitDx=0;exitDy=0;fontStyle=0" parent="1" source="H0BXeEcezO7H1MNJMZM7-56" target="H0BXeEcezO7H1MNJMZM7-70" edge="1">
          <mxGeometry width="50" height="50" relative="1" as="geometry">
            <mxPoint x="-390" y="905" as="sourcePoint" />
            <mxPoint x="-340" y="855" as="targetPoint" />
          </mxGeometry>
        </mxCell>
        <mxCell id="H0BXeEcezO7H1MNJMZM7-74" value="Вид травмы" style="shape=parallelogram;perimeter=parallelogramPerimeter;whiteSpace=wrap;html=1;fixedSize=1;fillColor=#76608a;fontColor=#ffffff;strokeColor=#432D57;fontStyle=0" parent="1" vertex="1">
          <mxGeometry x="-1090" y="740" width="120" height="60" as="geometry" />
        </mxCell>
        <mxCell id="H0BXeEcezO7H1MNJMZM7-75" value="" style="endArrow=none;html=1;rounded=0;exitX=0.75;exitY=1;exitDx=0;exitDy=0;entryX=0.5;entryY=0;entryDx=0;entryDy=0;endFill=0;fontStyle=0" parent="1" source="T_0jKyK-xo-bBpQAJnL_-45" target="H0BXeEcezO7H1MNJMZM7-87" edge="1">
          <mxGeometry relative="1" as="geometry">
            <mxPoint x="70" y="1210" as="sourcePoint" />
            <mxPoint x="147.5" y="1180" as="targetPoint" />
          </mxGeometry>
        </mxCell>
        <mxCell id="H0BXeEcezO7H1MNJMZM7-77" value="M" style="edgeLabel;resizable=0;html=1;align=left;verticalAlign=bottom;fontStyle=0" parent="H0BXeEcezO7H1MNJMZM7-75" connectable="0" vertex="1">
          <mxGeometry x="-1" relative="1" as="geometry">
            <mxPoint x="30" y="40" as="offset" />
          </mxGeometry>
        </mxCell>
        <mxCell id="H0BXeEcezO7H1MNJMZM7-79" value="" style="endArrow=none;html=1;rounded=0;exitX=0.25;exitY=1;exitDx=0;exitDy=0;entryX=0.5;entryY=0;entryDx=0;entryDy=0;endFill=0;fontStyle=0" parent="1" source="T_0jKyK-xo-bBpQAJnL_-37" target="H0BXeEcezO7H1MNJMZM7-87" edge="1">
          <mxGeometry relative="1" as="geometry">
            <mxPoint x="70" y="1210" as="sourcePoint" />
            <mxPoint x="147.5" y="1180" as="targetPoint" />
          </mxGeometry>
        </mxCell>
        <mxCell id="H0BXeEcezO7H1MNJMZM7-81" value="M" style="edgeLabel;resizable=0;html=1;align=left;verticalAlign=bottom;fontStyle=0" parent="H0BXeEcezO7H1MNJMZM7-79" connectable="0" vertex="1">
          <mxGeometry x="-1" relative="1" as="geometry">
            <mxPoint x="-42" y="38" as="offset" />
          </mxGeometry>
        </mxCell>
        <mxCell id="H0BXeEcezO7H1MNJMZM7-84" value="Статус" style="ellipse;whiteSpace=wrap;html=1;fillColor=#d5e8d4;strokeColor=#82b366;fontStyle=0" parent="1" vertex="1">
          <mxGeometry x="190" y="964.91" width="80" height="50" as="geometry" />
        </mxCell>
        <mxCell id="H0BXeEcezO7H1MNJMZM7-85" value="&lt;span&gt;&lt;u&gt;Код вида спорта&lt;/u&gt;&lt;/span&gt;" style="ellipse;whiteSpace=wrap;html=1;fillColor=#d5e8d4;strokeColor=#82b366;fontStyle=0" parent="1" vertex="1">
          <mxGeometry x="-61.56" y="965" width="80" height="50" as="geometry" />
        </mxCell>
        <mxCell id="H0BXeEcezO7H1MNJMZM7-86" value="" style="endArrow=none;html=1;rounded=0;entryX=0.5;entryY=0;entryDx=0;entryDy=0;exitX=0;exitY=1;exitDx=0;exitDy=0;fontStyle=0" parent="1" source="H0BXeEcezO7H1MNJMZM7-87" target="H0BXeEcezO7H1MNJMZM7-85" edge="1">
          <mxGeometry width="50" height="50" relative="1" as="geometry">
            <mxPoint x="137.19" y="950" as="sourcePoint" />
            <mxPoint x="-1.5600000000000023" y="820" as="targetPoint" />
          </mxGeometry>
        </mxCell>
        <mxCell id="H0BXeEcezO7H1MNJMZM7-87" value="тренировка" style="rhombus;whiteSpace=wrap;html=1;fillColor=#d5e8d4;strokeColor=#82b366;fontStyle=0" parent="1" vertex="1">
          <mxGeometry x="48.44" y="890" width="120" height="70" as="geometry" />
        </mxCell>
        <mxCell id="H0BXeEcezO7H1MNJMZM7-89" value="" style="endArrow=none;html=1;rounded=0;entryX=1;entryY=1;entryDx=0;entryDy=0;exitX=0;exitY=0;exitDx=0;exitDy=0;fontStyle=0" parent="1" source="H0BXeEcezO7H1MNJMZM7-84" target="H0BXeEcezO7H1MNJMZM7-87" edge="1">
          <mxGeometry width="50" height="50" relative="1" as="geometry">
            <mxPoint x="-1.5600000000000023" y="990" as="sourcePoint" />
            <mxPoint x="48.44" y="940" as="targetPoint" />
          </mxGeometry>
        </mxCell>
        <mxCell id="H0BXeEcezO7H1MNJMZM7-91" value="Статус" style="ellipse;whiteSpace=wrap;html=1;fillColor=#cce5ff;strokeColor=#36393d;fontStyle=0" parent="1" vertex="1">
          <mxGeometry x="-70" y="-100" width="70" height="40" as="geometry" />
        </mxCell>
        <mxCell id="H0BXeEcezO7H1MNJMZM7-92" value="" style="endArrow=none;html=1;rounded=0;entryX=0.5;entryY=1;entryDx=0;entryDy=0;exitX=0;exitY=0;exitDx=0;exitDy=0;fontStyle=0" parent="1" source="T_0jKyK-xo-bBpQAJnL_-1" target="H0BXeEcezO7H1MNJMZM7-91" edge="1">
          <mxGeometry width="50" height="50" relative="1" as="geometry">
            <mxPoint x="65" y="300" as="sourcePoint" />
            <mxPoint x="115" y="250" as="targetPoint" />
          </mxGeometry>
        </mxCell>
        <mxCell id="H0BXeEcezO7H1MNJMZM7-94" value="Руководство" style="rhombus;whiteSpace=wrap;html=1;fillColor=#b0e3e6;strokeColor=#0e8088;fontStyle=0" parent="1" vertex="1">
          <mxGeometry x="40" y="687.44" width="140" height="80" as="geometry" />
        </mxCell>
        <mxCell id="H0BXeEcezO7H1MNJMZM7-95" value="" style="endArrow=none;html=1;rounded=0;exitX=1;exitY=0.5;exitDx=0;exitDy=0;entryX=0;entryY=0.5;entryDx=0;entryDy=0;endFill=0;fontStyle=0" parent="1" source="T_0jKyK-xo-bBpQAJnL_-45" target="H0BXeEcezO7H1MNJMZM7-94" edge="1">
          <mxGeometry relative="1" as="geometry">
            <mxPoint x="-20" y="730" as="sourcePoint" />
            <mxPoint x="70" y="730" as="targetPoint" />
          </mxGeometry>
        </mxCell>
        <mxCell id="H0BXeEcezO7H1MNJMZM7-97" value="M" style="edgeLabel;resizable=0;html=1;align=left;verticalAlign=bottom;fontStyle=0" parent="H0BXeEcezO7H1MNJMZM7-95" connectable="0" vertex="1">
          <mxGeometry x="-1" relative="1" as="geometry">
            <mxPoint x="21" as="offset" />
          </mxGeometry>
        </mxCell>
        <mxCell id="H0BXeEcezO7H1MNJMZM7-99" value="" style="endArrow=none;html=1;rounded=0;entryX=0;entryY=0.5;entryDx=0;entryDy=0;exitX=1;exitY=0.5;exitDx=0;exitDy=0;endFill=0;fontStyle=0" parent="1" source="H0BXeEcezO7H1MNJMZM7-94" target="T_0jKyK-xo-bBpQAJnL_-37" edge="1">
          <mxGeometry relative="1" as="geometry">
            <mxPoint x="-20" y="730" as="sourcePoint" />
            <mxPoint x="140" y="730" as="targetPoint" />
          </mxGeometry>
        </mxCell>
        <mxCell id="H0BXeEcezO7H1MNJMZM7-102" value="M" style="edgeLabel;resizable=0;html=1;align=right;verticalAlign=bottom;fontStyle=0" parent="H0BXeEcezO7H1MNJMZM7-99" connectable="0" vertex="1">
          <mxGeometry x="1" relative="1" as="geometry">
            <mxPoint x="-26" as="offset" />
          </mxGeometry>
        </mxCell>
        <mxCell id="H0BXeEcezO7H1MNJMZM7-103" value="" style="endArrow=none;html=1;rounded=0;entryX=0;entryY=0;entryDx=0;entryDy=0;exitX=0.5;exitY=1;exitDx=0;exitDy=0;fontStyle=0" parent="1" source="H0BXeEcezO7H1MNJMZM7-104" target="H0BXeEcezO7H1MNJMZM7-94" edge="1">
          <mxGeometry width="50" height="50" relative="1" as="geometry">
            <mxPoint x="70" y="630" as="sourcePoint" />
            <mxPoint x="90" y="700" as="targetPoint" />
          </mxGeometry>
        </mxCell>
        <mxCell id="H0BXeEcezO7H1MNJMZM7-104" value="&lt;u&gt;С&lt;/u&gt;" style="ellipse;whiteSpace=wrap;html=1;fillColor=#b0e3e6;strokeColor=#0e8088;fontStyle=0" parent="1" vertex="1">
          <mxGeometry x="30" y="570" width="80" height="50" as="geometry" />
        </mxCell>
        <mxCell id="H0BXeEcezO7H1MNJMZM7-105" value="По" style="ellipse;whiteSpace=wrap;html=1;fillColor=#b0e3e6;strokeColor=#0e8088;fontStyle=0" parent="1" vertex="1">
          <mxGeometry x="120" y="570" width="80" height="50" as="geometry" />
        </mxCell>
        <mxCell id="H0BXeEcezO7H1MNJMZM7-106" value="" style="endArrow=none;html=1;rounded=0;exitX=0.5;exitY=1;exitDx=0;exitDy=0;entryX=1;entryY=0;entryDx=0;entryDy=0;fontStyle=0" parent="1" source="H0BXeEcezO7H1MNJMZM7-105" target="H0BXeEcezO7H1MNJMZM7-94" edge="1">
          <mxGeometry width="50" height="50" relative="1" as="geometry">
            <mxPoint x="40" y="750" as="sourcePoint" />
            <mxPoint x="90" y="700" as="targetPoint" />
          </mxGeometry>
        </mxCell>
        <mxCell id="H0BXeEcezO7H1MNJMZM7-107" value="Категория" style="shape=trapezoid;perimeter=trapezoidPerimeter;whiteSpace=wrap;html=1;fixedSize=1;fillColor=#f9f7ed;strokeColor=#36393d;fontStyle=0" parent="1" vertex="1">
          <mxGeometry x="481.25" y="924.94" width="85.28" height="35" as="geometry" />
        </mxCell>
        <mxCell id="H0BXeEcezO7H1MNJMZM7-108" value="&lt;span&gt;&lt;u&gt;Код категории&lt;/u&gt;&lt;/span&gt;" style="ellipse;whiteSpace=wrap;html=1;fillColor=#f9f7ed;strokeColor=#36393d;fontStyle=0" parent="1" vertex="1">
          <mxGeometry x="483.41" y="1000" width="83.12" height="60" as="geometry" />
        </mxCell>
        <mxCell id="H0BXeEcezO7H1MNJMZM7-109" value="&lt;span&gt;№ паспорта тренера&lt;/span&gt;" style="ellipse;whiteSpace=wrap;html=1;fillColor=#f9f7ed;strokeColor=#36393d;fontStyle=0" parent="1" vertex="1">
          <mxGeometry x="385.14" y="1000" width="86.25" height="60" as="geometry" />
        </mxCell>
        <mxCell id="H0BXeEcezO7H1MNJMZM7-110" value="" style="endArrow=none;html=1;rounded=0;exitX=0.5;exitY=1;exitDx=0;exitDy=0;entryX=0.5;entryY=0;entryDx=0;entryDy=0;endFill=0;fontStyle=0" parent="1" source="T_0jKyK-xo-bBpQAJnL_-37" target="H0BXeEcezO7H1MNJMZM7-107" edge="1">
          <mxGeometry relative="1" as="geometry">
            <mxPoint x="241.25" y="1027.44" as="sourcePoint" />
            <mxPoint x="401.25" y="1027.44" as="targetPoint" />
          </mxGeometry>
        </mxCell>
        <mxCell id="H0BXeEcezO7H1MNJMZM7-111" value="M" style="edgeLabel;resizable=0;html=1;align=center;verticalAlign=middle;fontStyle=0" parent="H0BXeEcezO7H1MNJMZM7-110" connectable="0" vertex="1">
          <mxGeometry relative="1" as="geometry">
            <mxPoint x="25" y="66" as="offset" />
          </mxGeometry>
        </mxCell>
        <mxCell id="H0BXeEcezO7H1MNJMZM7-112" value="1" style="edgeLabel;resizable=0;html=1;align=left;verticalAlign=bottom;fontStyle=0" parent="H0BXeEcezO7H1MNJMZM7-110" connectable="0" vertex="1">
          <mxGeometry x="-1" relative="1" as="geometry">
            <mxPoint x="10" y="38" as="offset" />
          </mxGeometry>
        </mxCell>
        <mxCell id="H0BXeEcezO7H1MNJMZM7-114" value="&lt;u&gt;С&lt;/u&gt;" style="ellipse;whiteSpace=wrap;html=1;fillColor=#f9f7ed;strokeColor=#36393d;fontStyle=0" parent="1" vertex="1">
          <mxGeometry x="326.39" y="914.94" width="86.25" height="60" as="geometry" />
        </mxCell>
        <mxCell id="H0BXeEcezO7H1MNJMZM7-115" value="По" style="ellipse;whiteSpace=wrap;html=1;fillColor=#f9f7ed;strokeColor=#36393d;fontStyle=0" parent="1" vertex="1">
          <mxGeometry x="583.89" y="1000" width="86.25" height="60" as="geometry" />
        </mxCell>
        <mxCell id="H0BXeEcezO7H1MNJMZM7-116" value="По" style="ellipse;whiteSpace=wrap;html=1;fillColor=#e3c800;fontColor=#000000;strokeColor=#B09500;fontStyle=0" parent="1" vertex="1">
          <mxGeometry x="-280" y="1260" width="82.5" height="50" as="geometry" />
        </mxCell>
        <mxCell id="H0BXeEcezO7H1MNJMZM7-117" value="&lt;u&gt;С&lt;/u&gt;" style="ellipse;whiteSpace=wrap;html=1;fillColor=#e3c800;fontColor=#000000;strokeColor=#B09500;fontStyle=0" parent="1" vertex="1">
          <mxGeometry x="-481.25" y="1220" width="87.5" height="50" as="geometry" />
        </mxCell>
        <mxCell id="H0BXeEcezO7H1MNJMZM7-118" value="" style="endArrow=none;html=1;rounded=0;entryX=0.5;entryY=1;entryDx=0;entryDy=0;exitX=0.5;exitY=0;exitDx=0;exitDy=0;fontStyle=0" parent="1" source="T_0jKyK-xo-bBpQAJnL_-11" target="H0BXeEcezO7H1MNJMZM7-32" edge="1">
          <mxGeometry width="50" height="50" relative="1" as="geometry">
            <mxPoint x="210" y="400" as="sourcePoint" />
            <mxPoint x="260" y="350" as="targetPoint" />
          </mxGeometry>
        </mxCell>
        <mxCell id="2zVqbGYwC8Gzav68p2ak-3" value="" style="endArrow=none;html=1;rounded=0;exitX=0.25;exitY=0;exitDx=0;exitDy=0;entryX=0.5;entryY=1;entryDx=0;entryDy=0;fontStyle=0" parent="1" source="T_0jKyK-xo-bBpQAJnL_-45" target="2zVqbGYwC8Gzav68p2ak-5" edge="1">
          <mxGeometry width="50" height="50" relative="1" as="geometry">
            <mxPoint x="-10" y="560" as="sourcePoint" />
            <mxPoint x="-110" y="670" as="targetPoint" />
          </mxGeometry>
        </mxCell>
        <mxCell id="2zVqbGYwC8Gzav68p2ak-5" value="&lt;span&gt;ФИО спортсмена&lt;/span&gt;" style="ellipse;whiteSpace=wrap;html=1;fillColor=#fff2cc;strokeColor=#d6b656;fontStyle=0" parent="1" vertex="1">
          <mxGeometry x="-365" y="540" width="90" height="50" as="geometry" />
        </mxCell>
        <mxCell id="2zVqbGYwC8Gzav68p2ak-6" value="" style="endArrow=none;html=1;rounded=0;entryX=0;entryY=0.5;entryDx=0;entryDy=0;exitX=1;exitY=0.5;exitDx=0;exitDy=0;fontStyle=0" parent="1" source="H0BXeEcezO7H1MNJMZM7-114" target="H0BXeEcezO7H1MNJMZM7-107" edge="1">
          <mxGeometry width="50" height="50" relative="1" as="geometry">
            <mxPoint x="422.00558975565343" y="983.5725248783633" as="sourcePoint" />
            <mxPoint x="618.61" y="884.94" as="targetPoint" />
          </mxGeometry>
        </mxCell>
        <mxCell id="2zVqbGYwC8Gzav68p2ak-7" value="" style="endArrow=none;html=1;rounded=0;entryX=0;entryY=0;entryDx=0;entryDy=0;exitX=1;exitY=1;exitDx=0;exitDy=0;fontStyle=0" parent="1" source="H0BXeEcezO7H1MNJMZM7-107" target="H0BXeEcezO7H1MNJMZM7-115" edge="1">
          <mxGeometry width="50" height="50" relative="1" as="geometry">
            <mxPoint x="568.61" y="934.94" as="sourcePoint" />
            <mxPoint x="618.61" y="884.94" as="targetPoint" />
          </mxGeometry>
        </mxCell>
        <mxCell id="2zVqbGYwC8Gzav68p2ak-8" value="" style="endArrow=none;html=1;rounded=0;entryX=0.5;entryY=0;entryDx=0;entryDy=0;exitX=0;exitY=1;exitDx=0;exitDy=0;fontStyle=0" parent="1" source="H0BXeEcezO7H1MNJMZM7-107" target="H0BXeEcezO7H1MNJMZM7-109" edge="1">
          <mxGeometry width="50" height="50" relative="1" as="geometry">
            <mxPoint x="568.61" y="934.94" as="sourcePoint" />
            <mxPoint x="618.61" y="884.94" as="targetPoint" />
          </mxGeometry>
        </mxCell>
        <mxCell id="2zVqbGYwC8Gzav68p2ak-9" value="" style="endArrow=none;html=1;rounded=0;entryX=0.5;entryY=0;entryDx=0;entryDy=0;exitX=0.5;exitY=1;exitDx=0;exitDy=0;fontStyle=0" parent="1" source="H0BXeEcezO7H1MNJMZM7-107" target="H0BXeEcezO7H1MNJMZM7-108" edge="1">
          <mxGeometry width="50" height="50" relative="1" as="geometry">
            <mxPoint x="568.61" y="934.94" as="sourcePoint" />
            <mxPoint x="618.61" y="884.94" as="targetPoint" />
          </mxGeometry>
        </mxCell>
        <mxCell id="2zVqbGYwC8Gzav68p2ak-14" value="" style="endArrow=none;html=1;rounded=0;entryX=0;entryY=0;entryDx=0;entryDy=0;fontStyle=0" parent="1" target="H0BXeEcezO7H1MNJMZM7-116" edge="1">
          <mxGeometry width="50" height="50" relative="1" as="geometry">
            <mxPoint x="-280" y="1210" as="sourcePoint" />
            <mxPoint x="-260" y="1090" as="targetPoint" />
          </mxGeometry>
        </mxCell>
        <mxCell id="2zVqbGYwC8Gzav68p2ak-15" value="" style="endArrow=none;html=1;rounded=0;entryX=0;entryY=1;entryDx=0;entryDy=0;exitX=1;exitY=0;exitDx=0;exitDy=0;fontStyle=0" parent="1" source="H0BXeEcezO7H1MNJMZM7-117" target="T_0jKyK-xo-bBpQAJnL_-54" edge="1">
          <mxGeometry width="50" height="50" relative="1" as="geometry">
            <mxPoint x="-310" y="1140" as="sourcePoint" />
            <mxPoint x="-260" y="1090" as="targetPoint" />
          </mxGeometry>
        </mxCell>
        <mxCell id="2zVqbGYwC8Gzav68p2ak-17" value="&lt;span&gt;&lt;u&gt;Код рейтинга&lt;/u&gt;&lt;/span&gt;" style="ellipse;whiteSpace=wrap;html=1;fillColor=#eeeeee;strokeColor=#36393d;fontStyle=0" parent="1" vertex="1">
          <mxGeometry x="-905" y="955" width="100" height="60" as="geometry" />
        </mxCell>
        <mxCell id="2zVqbGYwC8Gzav68p2ak-18" value="" style="endArrow=none;html=1;rounded=0;exitX=0;exitY=0.5;exitDx=0;exitDy=0;entryX=1;entryY=0.5;entryDx=0;entryDy=0;fontStyle=0" parent="1" source="H0BXeEcezO7H1MNJMZM7-56" target="2zVqbGYwC8Gzav68p2ak-17" edge="1">
          <mxGeometry width="50" height="50" relative="1" as="geometry">
            <mxPoint x="-635" y="910" as="sourcePoint" />
            <mxPoint x="-585" y="860" as="targetPoint" />
          </mxGeometry>
        </mxCell>
        <mxCell id="2zVqbGYwC8Gzav68p2ak-20" value="" style="endArrow=none;html=1;rounded=0;entryX=0;entryY=0.75;entryDx=0;entryDy=0;exitX=1;exitY=0.5;exitDx=0;exitDy=0;endFill=0;fontStyle=0" parent="1" source="H0BXeEcezO7H1MNJMZM7-74" target="T_0jKyK-xo-bBpQAJnL_-55" edge="1">
          <mxGeometry relative="1" as="geometry">
            <mxPoint x="-690" y="1030" as="sourcePoint" />
            <mxPoint x="-530" y="1030" as="targetPoint" />
          </mxGeometry>
        </mxCell>
        <mxCell id="2zVqbGYwC8Gzav68p2ak-22" value="1" style="edgeLabel;resizable=0;html=1;align=left;verticalAlign=bottom;fontStyle=0" parent="2zVqbGYwC8Gzav68p2ak-20" connectable="0" vertex="1">
          <mxGeometry x="-1" relative="1" as="geometry">
            <mxPoint x="20" y="-10" as="offset" />
          </mxGeometry>
        </mxCell>
        <mxCell id="2zVqbGYwC8Gzav68p2ak-23" value="M" style="edgeLabel;resizable=0;html=1;align=right;verticalAlign=bottom;fontStyle=0" parent="2zVqbGYwC8Gzav68p2ak-20" connectable="0" vertex="1">
          <mxGeometry x="1" relative="1" as="geometry">
            <mxPoint x="-50" y="1" as="offset" />
          </mxGeometry>
        </mxCell>
        <mxCell id="2zVqbGYwC8Gzav68p2ak-24" value="&lt;u&gt;Код вида травмы&lt;/u&gt;" style="ellipse;whiteSpace=wrap;html=1;fillColor=#76608a;fontColor=#ffffff;strokeColor=#432D57;fontStyle=0" parent="1" vertex="1">
          <mxGeometry x="-1210" y="649.8800000000001" width="90" height="47.56" as="geometry" />
        </mxCell>
        <mxCell id="2zVqbGYwC8Gzav68p2ak-27" value="&lt;span&gt;&lt;u&gt;Код названия&lt;/u&gt;&lt;/span&gt;" style="ellipse;whiteSpace=wrap;html=1;fillColor=#76608a;fontColor=#ffffff;strokeColor=#432D57;fontStyle=0" parent="1" vertex="1">
          <mxGeometry x="-1210" y="730.0000000000001" width="90" height="47.56" as="geometry" />
        </mxCell>
        <mxCell id="2zVqbGYwC8Gzav68p2ak-28" value="Лечение" style="ellipse;whiteSpace=wrap;html=1;fillColor=#76608a;fontColor=#ffffff;strokeColor=#432D57;fontStyle=0" parent="1" vertex="1">
          <mxGeometry x="-1210" y="800" width="90" height="47.56" as="geometry" />
        </mxCell>
        <mxCell id="2zVqbGYwC8Gzav68p2ak-29" value="Первая помощь" style="ellipse;whiteSpace=wrap;html=1;fillColor=#76608a;fontColor=#ffffff;strokeColor=#432D57;fontStyle=0" parent="1" vertex="1">
          <mxGeometry x="-1075" y="872.44" width="90" height="47.56" as="geometry" />
        </mxCell>
        <mxCell id="2zVqbGYwC8Gzav68p2ak-30" value="Описание" style="ellipse;whiteSpace=wrap;html=1;fillColor=#76608a;fontColor=#ffffff;strokeColor=#432D57;fontStyle=0" parent="1" vertex="1">
          <mxGeometry x="-1210" y="872.44" width="90" height="47.56" as="geometry" />
        </mxCell>
        <mxCell id="2zVqbGYwC8Gzav68p2ak-32" value="Название" style="ellipse;whiteSpace=wrap;html=1;fillColor=#f9f7ed;strokeColor=#36393d;fontStyle=0" parent="1" vertex="1">
          <mxGeometry x="627.36" y="912.44" width="86.25" height="60" as="geometry" />
        </mxCell>
        <mxCell id="2zVqbGYwC8Gzav68p2ak-33" value="" style="endArrow=none;html=1;rounded=0;entryX=0;entryY=0.5;entryDx=0;entryDy=0;exitX=1;exitY=0.5;exitDx=0;exitDy=0;fontStyle=0" parent="1" source="H0BXeEcezO7H1MNJMZM7-107" target="2zVqbGYwC8Gzav68p2ak-32" edge="1">
          <mxGeometry width="50" height="50" relative="1" as="geometry">
            <mxPoint x="493.89" y="1030" as="sourcePoint" />
            <mxPoint x="543.89" y="980" as="targetPoint" />
          </mxGeometry>
        </mxCell>
        <mxCell id="2zVqbGYwC8Gzav68p2ak-36" value="&lt;span&gt;&lt;u&gt;Код &amp;nbsp;рейтинга&lt;/u&gt;&lt;/span&gt;" style="ellipse;whiteSpace=wrap;html=1;fillColor=#ffff88;strokeColor=#36393d;fontStyle=0" parent="1" vertex="1">
          <mxGeometry x="960" y="1005" width="100" height="60" as="geometry" />
        </mxCell>
        <mxCell id="2zVqbGYwC8Gzav68p2ak-37" value="" style="endArrow=none;html=1;rounded=0;entryX=1;entryY=1;entryDx=0;entryDy=0;exitX=0.5;exitY=0;exitDx=0;exitDy=0;fontStyle=0" parent="1" source="2zVqbGYwC8Gzav68p2ak-36" target="H0BXeEcezO7H1MNJMZM7-47" edge="1">
          <mxGeometry width="50" height="50" relative="1" as="geometry">
            <mxPoint x="520" y="1010" as="sourcePoint" />
            <mxPoint x="570" y="960" as="targetPoint" />
          </mxGeometry>
        </mxCell>
        <mxCell id="2zVqbGYwC8Gzav68p2ak-42" value="" style="endArrow=none;html=1;rounded=0;entryX=0.76;entryY=0.937;entryDx=0;entryDy=0;entryPerimeter=0;exitX=0;exitY=0;exitDx=0;exitDy=0;fontStyle=0" parent="1" source="H0BXeEcezO7H1MNJMZM7-74" target="2zVqbGYwC8Gzav68p2ak-24" edge="1">
          <mxGeometry width="50" height="50" relative="1" as="geometry">
            <mxPoint x="-740" y="1020" as="sourcePoint" />
            <mxPoint x="-690" y="970" as="targetPoint" />
          </mxGeometry>
        </mxCell>
        <mxCell id="2zVqbGYwC8Gzav68p2ak-43" value="" style="endArrow=none;html=1;rounded=0;entryX=1;entryY=0.5;entryDx=0;entryDy=0;exitX=0;exitY=0.5;exitDx=0;exitDy=0;fontStyle=0" parent="1" source="H0BXeEcezO7H1MNJMZM7-74" target="2zVqbGYwC8Gzav68p2ak-27" edge="1">
          <mxGeometry width="50" height="50" relative="1" as="geometry">
            <mxPoint x="-740" y="1020" as="sourcePoint" />
            <mxPoint x="-690" y="970" as="targetPoint" />
          </mxGeometry>
        </mxCell>
        <mxCell id="2zVqbGYwC8Gzav68p2ak-44" value="" style="endArrow=none;html=1;rounded=0;entryX=0;entryY=1;entryDx=0;entryDy=0;exitX=1;exitY=0.5;exitDx=0;exitDy=0;fontStyle=0" parent="1" source="2zVqbGYwC8Gzav68p2ak-28" target="H0BXeEcezO7H1MNJMZM7-74" edge="1">
          <mxGeometry width="50" height="50" relative="1" as="geometry">
            <mxPoint x="-740" y="1020" as="sourcePoint" />
            <mxPoint x="-690" y="970" as="targetPoint" />
          </mxGeometry>
        </mxCell>
        <mxCell id="2zVqbGYwC8Gzav68p2ak-45" value="" style="endArrow=none;html=1;rounded=0;entryX=0.25;entryY=1;entryDx=0;entryDy=0;exitX=1;exitY=0;exitDx=0;exitDy=0;fontStyle=0" parent="1" source="2zVqbGYwC8Gzav68p2ak-30" target="H0BXeEcezO7H1MNJMZM7-74" edge="1">
          <mxGeometry width="50" height="50" relative="1" as="geometry">
            <mxPoint x="-740" y="1020" as="sourcePoint" />
            <mxPoint x="-690" y="970" as="targetPoint" />
          </mxGeometry>
        </mxCell>
        <mxCell id="2zVqbGYwC8Gzav68p2ak-46" value="" style="endArrow=none;html=1;rounded=0;entryX=0.5;entryY=1;entryDx=0;entryDy=0;exitX=0.5;exitY=0;exitDx=0;exitDy=0;fontStyle=0" parent="1" source="2zVqbGYwC8Gzav68p2ak-29" target="H0BXeEcezO7H1MNJMZM7-74" edge="1">
          <mxGeometry width="50" height="50" relative="1" as="geometry">
            <mxPoint x="-740" y="1020" as="sourcePoint" />
            <mxPoint x="-690" y="970" as="targetPoint" />
          </mxGeometry>
        </mxCell>
        <mxCell id="2zVqbGYwC8Gzav68p2ak-48" value="&lt;span&gt;&lt;u&gt;Код вида спорта&lt;/u&gt;&lt;/span&gt;" style="ellipse;whiteSpace=wrap;html=1;fillColor=#6d8764;fontColor=#ffffff;strokeColor=#3A5431;fontStyle=0" parent="1" vertex="1">
          <mxGeometry x="-535" y="1390" width="100" height="60" as="geometry" />
        </mxCell>
        <mxCell id="2zVqbGYwC8Gzav68p2ak-57" value="" style="endArrow=none;html=1;rounded=0;exitX=1;exitY=0.5;exitDx=0;exitDy=0;entryX=0;entryY=0.5;entryDx=0;entryDy=0;fontStyle=0" parent="1" source="2zVqbGYwC8Gzav68p2ak-48" target="H0BXeEcezO7H1MNJMZM7-44" edge="1">
          <mxGeometry width="50" height="50" relative="1" as="geometry">
            <mxPoint x="-500" y="1210" as="sourcePoint" />
            <mxPoint x="-350" y="1380" as="targetPoint" />
          </mxGeometry>
        </mxCell>
        <mxCell id="2zVqbGYwC8Gzav68p2ak-67" value="&lt;span&gt;&lt;u&gt;Код названия&lt;/u&gt;&lt;/span&gt;" style="ellipse;whiteSpace=wrap;html=1;fillColor=#6d8764;fontColor=#ffffff;strokeColor=#3A5431;fontStyle=0" parent="1" vertex="1">
          <mxGeometry x="-145" y="1390" width="100" height="60" as="geometry" />
        </mxCell>
        <mxCell id="2zVqbGYwC8Gzav68p2ak-68" value="" style="endArrow=none;html=1;rounded=0;entryX=0;entryY=0.5;entryDx=0;entryDy=0;exitX=1;exitY=0.5;exitDx=0;exitDy=0;fontStyle=0" parent="1" source="H0BXeEcezO7H1MNJMZM7-44" target="2zVqbGYwC8Gzav68p2ak-67" edge="1">
          <mxGeometry width="50" height="50" relative="1" as="geometry">
            <mxPoint x="-640" y="1330" as="sourcePoint" />
            <mxPoint x="-590" y="1280" as="targetPoint" />
          </mxGeometry>
        </mxCell>
        <mxCell id="2zVqbGYwC8Gzav68p2ak-69" value="" style="endArrow=none;html=1;rounded=0;entryX=0.5;entryY=0;entryDx=0;entryDy=0;exitX=0.5;exitY=1;exitDx=0;exitDy=0;endFill=0;fontStyle=0" parent="1" source="T_0jKyK-xo-bBpQAJnL_-54" target="H0BXeEcezO7H1MNJMZM7-44" edge="1">
          <mxGeometry relative="1" as="geometry">
            <mxPoint x="-710" y="1010" as="sourcePoint" />
            <mxPoint x="-550" y="1010" as="targetPoint" />
          </mxGeometry>
        </mxCell>
        <mxCell id="2zVqbGYwC8Gzav68p2ak-71" value="M" style="edgeLabel;resizable=0;html=1;align=left;verticalAlign=bottom;fontStyle=0" parent="2zVqbGYwC8Gzav68p2ak-69" connectable="0" vertex="1">
          <mxGeometry x="-1" relative="1" as="geometry">
            <mxPoint x="-19" y="30" as="offset" />
          </mxGeometry>
        </mxCell>
        <mxCell id="2zVqbGYwC8Gzav68p2ak-72" value="1" style="edgeLabel;resizable=0;html=1;align=right;verticalAlign=bottom;fontStyle=0" parent="2zVqbGYwC8Gzav68p2ak-69" connectable="0" vertex="1">
          <mxGeometry x="1" relative="1" as="geometry">
            <mxPoint x="-10" y="-20" as="offset" />
          </mxGeometry>
        </mxCell>
        <mxCell id="IrVZ6cjzTWA2UIi703Mm-1" value="Призовое место" style="ellipse;whiteSpace=wrap;html=1;fillColor=#cce5ff;strokeColor=#36393d;fontStyle=0" parent="1" vertex="1">
          <mxGeometry x="90" y="-100" width="70" height="40" as="geometry" />
        </mxCell>
        <mxCell id="IrVZ6cjzTWA2UIi703Mm-2" value="" style="endArrow=none;html=1;rounded=0;entryX=0.5;entryY=1;entryDx=0;entryDy=0;exitX=0.75;exitY=0;exitDx=0;exitDy=0;fontStyle=0" parent="1" source="T_0jKyK-xo-bBpQAJnL_-1" target="IrVZ6cjzTWA2UIi703Mm-1" edge="1">
          <mxGeometry width="50" height="50" relative="1" as="geometry">
            <mxPoint x="110" y="30" as="sourcePoint" />
            <mxPoint x="50" y="-10" as="targetPoint" />
          </mxGeometry>
        </mxCell>
        <mxCell id="IrVZ6cjzTWA2UIi703Mm-4" value="" style="endArrow=none;html=1;rounded=0;entryX=1;entryY=0;entryDx=0;entryDy=0;exitX=0.396;exitY=0.881;exitDx=0;exitDy=0;endFill=0;exitPerimeter=0;fontStyle=0" parent="1" source="H0BXeEcezO7H1MNJMZM7-87" target="H0BXeEcezO7H1MNJMZM7-44" edge="1">
          <mxGeometry relative="1" as="geometry">
            <mxPoint x="-291" y="1220" as="sourcePoint" />
            <mxPoint x="-290" y="1400" as="targetPoint" />
          </mxGeometry>
        </mxCell>
        <mxCell id="IrVZ6cjzTWA2UIi703Mm-5" value="M" style="edgeLabel;resizable=0;html=1;align=left;verticalAlign=bottom;fontStyle=0" parent="IrVZ6cjzTWA2UIi703Mm-4" connectable="0" vertex="1">
          <mxGeometry x="-1" relative="1" as="geometry">
            <mxPoint x="-19" y="30" as="offset" />
          </mxGeometry>
        </mxCell>
        <mxCell id="IrVZ6cjzTWA2UIi703Mm-6" value="1" style="edgeLabel;resizable=0;html=1;align=right;verticalAlign=bottom;fontStyle=0" parent="IrVZ6cjzTWA2UIi703Mm-4" connectable="0" vertex="1">
          <mxGeometry x="1" relative="1" as="geometry">
            <mxPoint x="-10" y="-20" as="offset" />
          </mxGeometry>
        </mxCell>
        <mxCell id="IrVZ6cjzTWA2UIi703Mm-10" value="Виды спорта" style="shape=parallelogram;perimeter=parallelogramPerimeter;whiteSpace=wrap;html=1;fixedSize=1;fillColor=#6d8764;fontColor=#ffffff;strokeColor=#3A5431;fontStyle=0" parent="1" vertex="1">
          <mxGeometry x="-640" y="275" width="130" height="60" as="geometry" />
        </mxCell>
        <mxCell id="IrVZ6cjzTWA2UIi703Mm-11" value="&lt;span&gt;&lt;u&gt;Код вида спорта&lt;/u&gt;&lt;/span&gt;" style="ellipse;whiteSpace=wrap;html=1;fillColor=#6d8764;fontColor=#ffffff;strokeColor=#3A5431;fontStyle=0" parent="1" vertex="1">
          <mxGeometry x="-625" y="395" width="100" height="60" as="geometry" />
        </mxCell>
        <mxCell id="IrVZ6cjzTWA2UIi703Mm-12" value="" style="endArrow=none;html=1;rounded=0;exitX=0.5;exitY=0;exitDx=0;exitDy=0;entryX=0.5;entryY=1;entryDx=0;entryDy=0;fontStyle=0" parent="1" source="IrVZ6cjzTWA2UIi703Mm-11" target="IrVZ6cjzTWA2UIi703Mm-10" edge="1">
          <mxGeometry width="50" height="50" relative="1" as="geometry">
            <mxPoint x="-775" y="95" as="sourcePoint" />
            <mxPoint x="-625" y="265" as="targetPoint" />
          </mxGeometry>
        </mxCell>
        <mxCell id="IrVZ6cjzTWA2UIi703Mm-13" value="&lt;span style=&quot;border-color: var(--border-color);&quot;&gt;&lt;u&gt;Код&amp;nbsp;названия&lt;/u&gt;&lt;/span&gt;" style="ellipse;whiteSpace=wrap;html=1;fillColor=#6d8764;fontColor=#ffffff;strokeColor=#3A5431;fontStyle=0" parent="1" vertex="1">
          <mxGeometry x="-625" y="145" width="100" height="60" as="geometry" />
        </mxCell>
        <mxCell id="IrVZ6cjzTWA2UIi703Mm-14" value="" style="endArrow=none;html=1;rounded=0;entryX=0.5;entryY=1;entryDx=0;entryDy=0;exitX=0.5;exitY=0;exitDx=0;exitDy=0;fontStyle=0" parent="1" source="IrVZ6cjzTWA2UIi703Mm-10" target="IrVZ6cjzTWA2UIi703Mm-13" edge="1">
          <mxGeometry width="50" height="50" relative="1" as="geometry">
            <mxPoint x="-915" y="215" as="sourcePoint" />
            <mxPoint x="-865" y="165" as="targetPoint" />
          </mxGeometry>
        </mxCell>
        <mxCell id="IrVZ6cjzTWA2UIi703Mm-19" value="" style="endArrow=none;html=1;rounded=0;exitX=1;exitY=0.5;exitDx=0;exitDy=0;entryX=0;entryY=0.5;entryDx=0;entryDy=0;endFill=0;fontStyle=0" parent="1" source="IrVZ6cjzTWA2UIi703Mm-10" target="H0BXeEcezO7H1MNJMZM7-2" edge="1">
          <mxGeometry relative="1" as="geometry">
            <mxPoint x="-540" y="360" as="sourcePoint" />
            <mxPoint x="-380" y="360" as="targetPoint" />
          </mxGeometry>
        </mxCell>
        <mxCell id="IrVZ6cjzTWA2UIi703Mm-21" value="1" style="edgeLabel;resizable=0;html=1;align=left;verticalAlign=bottom;fontStyle=0" parent="IrVZ6cjzTWA2UIi703Mm-19" connectable="0" vertex="1">
          <mxGeometry x="-1" relative="1" as="geometry">
            <mxPoint x="15" as="offset" />
          </mxGeometry>
        </mxCell>
        <mxCell id="IrVZ6cjzTWA2UIi703Mm-22" value="M" style="edgeLabel;resizable=0;html=1;align=right;verticalAlign=bottom;fontStyle=0" parent="IrVZ6cjzTWA2UIi703Mm-19" connectable="0" vertex="1">
          <mxGeometry x="1" relative="1" as="geometry" />
        </mxCell>
        <mxCell id="IrVZ6cjzTWA2UIi703Mm-23" value="Виды спорта" style="shape=parallelogram;perimeter=parallelogramPerimeter;whiteSpace=wrap;html=1;fixedSize=1;fillColor=#6d8764;fontColor=#ffffff;strokeColor=#3A5431;fontStyle=0" parent="1" vertex="1">
          <mxGeometry x="720" y="280" width="130" height="60" as="geometry" />
        </mxCell>
        <mxCell id="IrVZ6cjzTWA2UIi703Mm-24" value="&lt;span&gt;&lt;u&gt;Код вида спорта&lt;/u&gt;&lt;/span&gt;" style="ellipse;whiteSpace=wrap;html=1;fillColor=#6d8764;fontColor=#ffffff;strokeColor=#3A5431;fontStyle=0" parent="1" vertex="1">
          <mxGeometry x="735" y="400" width="100" height="60" as="geometry" />
        </mxCell>
        <mxCell id="IrVZ6cjzTWA2UIi703Mm-25" value="" style="endArrow=none;html=1;rounded=0;exitX=0.5;exitY=0;exitDx=0;exitDy=0;entryX=0.5;entryY=1;entryDx=0;entryDy=0;fontStyle=0" parent="1" source="IrVZ6cjzTWA2UIi703Mm-24" target="IrVZ6cjzTWA2UIi703Mm-23" edge="1">
          <mxGeometry width="50" height="50" relative="1" as="geometry">
            <mxPoint x="585" y="100" as="sourcePoint" />
            <mxPoint x="735" y="270" as="targetPoint" />
          </mxGeometry>
        </mxCell>
        <mxCell id="IrVZ6cjzTWA2UIi703Mm-26" value="&lt;span style=&quot;border-color: var(--border-color);&quot;&gt;&lt;u&gt;Код&amp;nbsp;названия&lt;/u&gt;&lt;/span&gt;" style="ellipse;whiteSpace=wrap;html=1;fillColor=#6d8764;fontColor=#ffffff;strokeColor=#3A5431;fontStyle=0" parent="1" vertex="1">
          <mxGeometry x="735" y="150" width="100" height="60" as="geometry" />
        </mxCell>
        <mxCell id="IrVZ6cjzTWA2UIi703Mm-27" value="" style="endArrow=none;html=1;rounded=0;entryX=0.5;entryY=1;entryDx=0;entryDy=0;exitX=0.5;exitY=0;exitDx=0;exitDy=0;fontStyle=0" parent="1" source="IrVZ6cjzTWA2UIi703Mm-23" target="IrVZ6cjzTWA2UIi703Mm-26" edge="1">
          <mxGeometry width="50" height="50" relative="1" as="geometry">
            <mxPoint x="445" y="220" as="sourcePoint" />
            <mxPoint x="495" y="170" as="targetPoint" />
          </mxGeometry>
        </mxCell>
        <mxCell id="IrVZ6cjzTWA2UIi703Mm-30" value="" style="endArrow=none;html=1;rounded=0;entryX=0;entryY=0.5;entryDx=0;entryDy=0;exitX=1;exitY=0.5;exitDx=0;exitDy=0;endFill=0;fontStyle=0" parent="1" source="T_0jKyK-xo-bBpQAJnL_-11" target="IrVZ6cjzTWA2UIi703Mm-23" edge="1">
          <mxGeometry relative="1" as="geometry">
            <mxPoint x="190" y="580" as="sourcePoint" />
            <mxPoint x="420" y="530" as="targetPoint" />
          </mxGeometry>
        </mxCell>
        <mxCell id="IrVZ6cjzTWA2UIi703Mm-32" value="M" style="edgeLabel;resizable=0;html=1;align=left;verticalAlign=bottom;fontStyle=0" parent="IrVZ6cjzTWA2UIi703Mm-30" connectable="0" vertex="1">
          <mxGeometry x="-1" relative="1" as="geometry" />
        </mxCell>
        <mxCell id="IrVZ6cjzTWA2UIi703Mm-33" value="1" style="edgeLabel;resizable=0;html=1;align=right;verticalAlign=bottom;fontStyle=0" parent="IrVZ6cjzTWA2UIi703Mm-30" connectable="0" vertex="1">
          <mxGeometry x="1" relative="1" as="geometry">
            <mxPoint x="-21" as="offset" />
          </mxGeometry>
        </mxCell>
        <mxCell id="xagArgM5I_mZ86sQA-uz-1" value="" style="endArrow=none;html=1;rounded=0;exitX=1;exitY=1;exitDx=0;exitDy=0;entryX=0;entryY=0.25;entryDx=0;entryDy=0;endFill=0;fontStyle=0" parent="1" source="IrVZ6cjzTWA2UIi703Mm-10" target="T_0jKyK-xo-bBpQAJnL_-45" edge="1">
          <mxGeometry relative="1" as="geometry">
            <mxPoint x="-510" y="315" as="sourcePoint" />
            <mxPoint x="-240" y="323" as="targetPoint" />
          </mxGeometry>
        </mxCell>
        <mxCell id="xagArgM5I_mZ86sQA-uz-2" value="1" style="edgeLabel;resizable=0;html=1;align=left;verticalAlign=bottom;fontStyle=0" parent="xagArgM5I_mZ86sQA-uz-1" connectable="0" vertex="1">
          <mxGeometry x="-1" relative="1" as="geometry">
            <mxPoint x="15" as="offset" />
          </mxGeometry>
        </mxCell>
        <mxCell id="xagArgM5I_mZ86sQA-uz-3" value="M" style="edgeLabel;resizable=0;html=1;align=right;verticalAlign=bottom;fontStyle=0" parent="xagArgM5I_mZ86sQA-uz-1" connectable="0" vertex="1">
          <mxGeometry x="1" relative="1" as="geometry">
            <mxPoint x="-10" y="-15" as="offset" />
          </mxGeometry>
        </mxCell>
        <mxCell id="xagArgM5I_mZ86sQA-uz-4" value="Правила" style="ellipse;whiteSpace=wrap;html=1;fillColor=#6d8764;fontColor=#ffffff;strokeColor=#3A5431;fontStyle=0" parent="1" vertex="1">
          <mxGeometry x="-351.25" y="1520" width="100" height="60" as="geometry" />
        </mxCell>
        <mxCell id="xagArgM5I_mZ86sQA-uz-5" value="" style="endArrow=none;html=1;rounded=0;fontSize=12;startSize=8;endSize=8;curved=1;entryX=0.5;entryY=1;entryDx=0;entryDy=0;exitX=0.5;exitY=0;exitDx=0;exitDy=0;fontStyle=0" parent="1" source="xagArgM5I_mZ86sQA-uz-4" target="H0BXeEcezO7H1MNJMZM7-44" edge="1">
          <mxGeometry width="50" height="50" relative="1" as="geometry">
            <mxPoint x="-170" y="1300" as="sourcePoint" />
            <mxPoint x="-120" y="1250" as="targetPoint" />
          </mxGeometry>
        </mxCell>
        <mxCell id="xagArgM5I_mZ86sQA-uz-6" value="Правила" style="ellipse;whiteSpace=wrap;html=1;fillColor=#6d8764;fontColor=#ffffff;strokeColor=#3A5431;fontStyle=0" parent="1" vertex="1">
          <mxGeometry x="-810" y="275" width="100" height="60" as="geometry" />
        </mxCell>
        <mxCell id="xagArgM5I_mZ86sQA-uz-7" value="Правила" style="ellipse;whiteSpace=wrap;html=1;fillColor=#6d8764;fontColor=#ffffff;strokeColor=#3A5431;fontStyle=0" parent="1" vertex="1">
          <mxGeometry x="950" y="282.5" width="100" height="60" as="geometry" />
        </mxCell>
        <mxCell id="xagArgM5I_mZ86sQA-uz-8" value="" style="endArrow=none;html=1;rounded=0;fontSize=12;startSize=8;endSize=8;curved=1;entryX=1;entryY=0.5;entryDx=0;entryDy=0;exitX=0;exitY=0.5;exitDx=0;exitDy=0;fontStyle=0" parent="1" source="xagArgM5I_mZ86sQA-uz-7" target="IrVZ6cjzTWA2UIi703Mm-23" edge="1">
          <mxGeometry width="50" height="50" relative="1" as="geometry">
            <mxPoint x="450" y="730" as="sourcePoint" />
            <mxPoint x="500" y="680" as="targetPoint" />
          </mxGeometry>
        </mxCell>
        <mxCell id="xagArgM5I_mZ86sQA-uz-9" value="" style="endArrow=none;html=1;rounded=0;fontSize=12;startSize=8;endSize=8;curved=1;entryX=0;entryY=0.5;entryDx=0;entryDy=0;exitX=1;exitY=0.5;exitDx=0;exitDy=0;fontStyle=0" parent="1" source="xagArgM5I_mZ86sQA-uz-6" target="IrVZ6cjzTWA2UIi703Mm-10" edge="1">
          <mxGeometry width="50" height="50" relative="1" as="geometry">
            <mxPoint x="-700" y="370" as="sourcePoint" />
            <mxPoint x="-590" y="680" as="targetPoint" />
          </mxGeometry>
        </mxCell>
        <mxCell id="xagArgM5I_mZ86sQA-uz-10" value="&lt;font style=&quot;font-size: 12px;&quot;&gt;Баллы спортсмена&lt;/font&gt;" style="ellipse;whiteSpace=wrap;html=1;fontSize=16;fillColor=#e1d5e7;strokeColor=#9673a6;fontStyle=0" parent="1" vertex="1">
          <mxGeometry x="170" y="285" width="80" height="50" as="geometry" />
        </mxCell>
        <mxCell id="xagArgM5I_mZ86sQA-uz-11" value="&lt;span style=&quot;font-size: 12px;&quot;&gt;Статус&lt;/span&gt;" style="ellipse;whiteSpace=wrap;html=1;fontSize=16;fillColor=#e1d5e7;strokeColor=#9673a6;fontStyle=0" parent="1" vertex="1">
          <mxGeometry x="440" y="187.5" width="80" height="50" as="geometry" />
        </mxCell>
        <mxCell id="xagArgM5I_mZ86sQA-uz-12" value="" style="endArrow=none;html=1;rounded=0;fontSize=12;startSize=8;endSize=8;curved=1;entryX=0;entryY=1;entryDx=0;entryDy=0;exitX=0.644;exitY=0.082;exitDx=0;exitDy=0;exitPerimeter=0;fontStyle=0" parent="1" source="T_0jKyK-xo-bBpQAJnL_-11" target="xagArgM5I_mZ86sQA-uz-11" edge="1">
          <mxGeometry width="50" height="50" relative="1" as="geometry">
            <mxPoint x="30" y="360" as="sourcePoint" />
            <mxPoint x="80" y="310" as="targetPoint" />
          </mxGeometry>
        </mxCell>
        <mxCell id="xagArgM5I_mZ86sQA-uz-13" value="&lt;span style=&quot;border-color: var(--border-color);&quot;&gt;&lt;u&gt;Код названия&lt;/u&gt;&lt;/span&gt;" style="ellipse;whiteSpace=wrap;html=1;fillColor=#e1d5e7;strokeColor=#9673a6;fontStyle=0" parent="1" vertex="1">
          <mxGeometry x="370" y="137.5" width="90" height="50" as="geometry" />
        </mxCell>
        <mxCell id="xagArgM5I_mZ86sQA-uz-14" value="" style="endArrow=none;html=1;rounded=0;fontSize=12;startSize=8;endSize=8;curved=1;entryX=0.5;entryY=1;entryDx=0;entryDy=0;exitX=0.614;exitY=0.108;exitDx=0;exitDy=0;exitPerimeter=0;fontStyle=0" parent="1" source="T_0jKyK-xo-bBpQAJnL_-11" target="xagArgM5I_mZ86sQA-uz-13" edge="1">
          <mxGeometry width="50" height="50" relative="1" as="geometry">
            <mxPoint x="30" y="360" as="sourcePoint" />
            <mxPoint x="80" y="310" as="targetPoint" />
          </mxGeometry>
        </mxCell>
        <mxCell id="xagArgM5I_mZ86sQA-uz-15" value="&lt;u&gt;Код названия&lt;/u&gt;" style="ellipse;whiteSpace=wrap;html=1;fillColor=#ffcccc;strokeColor=#36393d;fontStyle=0" parent="1" vertex="1">
          <mxGeometry x="-380" y="232.5" width="80" height="50" as="geometry" />
        </mxCell>
        <mxCell id="xagArgM5I_mZ86sQA-uz-16" value="" style="endArrow=none;html=1;rounded=0;fontSize=12;startSize=8;endSize=8;curved=1;entryX=0.125;entryY=0.287;entryDx=0;entryDy=0;entryPerimeter=0;exitX=1;exitY=1;exitDx=0;exitDy=0;fontStyle=0" parent="1" source="xagArgM5I_mZ86sQA-uz-15" target="H0BXeEcezO7H1MNJMZM7-2" edge="1">
          <mxGeometry width="50" height="50" relative="1" as="geometry">
            <mxPoint x="-200" y="440" as="sourcePoint" />
            <mxPoint x="-150" y="390" as="targetPoint" />
          </mxGeometry>
        </mxCell>
        <mxCell id="xagArgM5I_mZ86sQA-uz-17" value="&lt;span&gt;&lt;u&gt;Код названия&lt;/u&gt;&lt;/span&gt;" style="ellipse;whiteSpace=wrap;html=1;fillColor=#d5e8d4;strokeColor=#82b366;fontStyle=0" parent="1" vertex="1">
          <mxGeometry x="40" y="1030" width="80" height="50" as="geometry" />
        </mxCell>
        <mxCell id="xagArgM5I_mZ86sQA-uz-18" value="" style="endArrow=none;html=1;rounded=0;fontSize=12;startSize=8;endSize=8;curved=1;entryX=0.5;entryY=1;entryDx=0;entryDy=0;exitX=0.5;exitY=0;exitDx=0;exitDy=0;fontStyle=0" parent="1" source="xagArgM5I_mZ86sQA-uz-17" target="H0BXeEcezO7H1MNJMZM7-87" edge="1">
          <mxGeometry width="50" height="50" relative="1" as="geometry">
            <mxPoint x="-200" y="990" as="sourcePoint" />
            <mxPoint x="-150" y="940" as="targetPoint" />
          </mxGeometry>
        </mxCell>
        <mxCell id="xagArgM5I_mZ86sQA-uz-19" value="Код названия" style="ellipse;whiteSpace=wrap;html=1;fillColor=#e3c800;fontColor=#000000;strokeColor=#B09500;fontStyle=0" parent="1" vertex="1">
          <mxGeometry x="-423.75" y="1280" width="87.5" height="50" as="geometry" />
        </mxCell>
        <mxCell id="xagArgM5I_mZ86sQA-uz-20" value="" style="endArrow=none;html=1;rounded=0;fontSize=12;startSize=8;endSize=8;curved=1;entryX=0.25;entryY=1;entryDx=0;entryDy=0;exitX=0.5;exitY=0;exitDx=0;exitDy=0;fontStyle=0" parent="1" source="xagArgM5I_mZ86sQA-uz-19" target="T_0jKyK-xo-bBpQAJnL_-54" edge="1">
          <mxGeometry width="50" height="50" relative="1" as="geometry">
            <mxPoint x="-230" y="1090" as="sourcePoint" />
            <mxPoint x="-180" y="1040" as="targetPoint" />
          </mxGeometry>
        </mxCell>
        <mxCell id="xagArgM5I_mZ86sQA-uz-21" value="&lt;u&gt;№ паспорта тренера&lt;/u&gt;" style="ellipse;whiteSpace=wrap;html=1;fillColor=#b0e3e6;strokeColor=#0e8088;fontStyle=0" parent="1" vertex="1">
          <mxGeometry x="200" y="610" width="80" height="50" as="geometry" />
        </mxCell>
        <mxCell id="xagArgM5I_mZ86sQA-uz-22" value="&lt;u&gt;Код спортсмена&lt;/u&gt;" style="ellipse;whiteSpace=wrap;html=1;fillColor=#b0e3e6;strokeColor=#0e8088;fontStyle=0" parent="1" vertex="1">
          <mxGeometry x="-60" y="610" width="80" height="50" as="geometry" />
        </mxCell>
        <mxCell id="xagArgM5I_mZ86sQA-uz-23" value="" style="endArrow=none;html=1;rounded=0;fontSize=12;startSize=8;endSize=8;curved=1;entryX=1;entryY=1;entryDx=0;entryDy=0;exitX=0.12;exitY=0.392;exitDx=0;exitDy=0;exitPerimeter=0;" parent="1" source="H0BXeEcezO7H1MNJMZM7-94" target="xagArgM5I_mZ86sQA-uz-22" edge="1">
          <mxGeometry width="50" height="50" relative="1" as="geometry">
            <mxPoint x="8" y="770" as="sourcePoint" />
            <mxPoint x="20" y="740" as="targetPoint" />
          </mxGeometry>
        </mxCell>
        <mxCell id="xagArgM5I_mZ86sQA-uz-24" value="" style="endArrow=none;html=1;rounded=0;fontSize=12;startSize=8;endSize=8;curved=1;exitX=0.885;exitY=0.377;exitDx=0;exitDy=0;exitPerimeter=0;" parent="1" source="H0BXeEcezO7H1MNJMZM7-94" target="xagArgM5I_mZ86sQA-uz-21" edge="1">
          <mxGeometry width="50" height="50" relative="1" as="geometry">
            <mxPoint x="-30" y="790" as="sourcePoint" />
            <mxPoint x="20" y="740" as="targetPoint" />
          </mxGeometry>
        </mxCell>
        <mxCell id="xagArgM5I_mZ86sQA-uz-25" value="&lt;span&gt;Код названия&lt;/span&gt;" style="ellipse;whiteSpace=wrap;html=1;fillColor=#fff2cc;strokeColor=#d6b656;fontStyle=0" parent="1" vertex="1">
          <mxGeometry x="-571.25" y="690" width="90" height="50" as="geometry" />
        </mxCell>
        <mxCell id="xagArgM5I_mZ86sQA-uz-26" value="" style="endArrow=none;html=1;rounded=0;fontSize=12;startSize=8;endSize=8;curved=1;entryX=0;entryY=0.75;entryDx=0;entryDy=0;exitX=1;exitY=0.5;exitDx=0;exitDy=0;" parent="1" source="xagArgM5I_mZ86sQA-uz-25" target="T_0jKyK-xo-bBpQAJnL_-45" edge="1">
          <mxGeometry width="50" height="50" relative="1" as="geometry">
            <mxPoint x="-310" y="780" as="sourcePoint" />
            <mxPoint x="-260" y="730" as="targetPoint" />
          </mxGeometry>
        </mxCell>
      </root>
    </mxGraphModel>
  </diagram>
</mxfile>
